<?xml version="1.0" encoding="UTF-8"?>
<svg id="Calque_1" data-name="Calque 1" xmlns="http://www.w3.org/2000/svg" viewBox="0 0 779.53 481.89">
  <defs>
    <style>
      .cls-1 {
        fill: #e30613;
      }

      .cls-1, .cls-2, .cls-3, .cls-4, .cls-5 {
        stroke-width: 0px;
      }

      .cls-2 {
        fill: #112f6d;
      }

      .cls-3 {
        fill: #0f9d87;
      }

      .cls-4 {
        fill: #1d1d1b;
      }

      .cls-5 {
        fill: #575756;
      }
    </style>
  </defs>
  <g>
    <path class="cls-4" d="M225.82,412.7h6.71c4.34,0,5.18,2.81,5.18,4.71s-.83,4.66-5.18,4.66h-4.05v5.84h-2.66v-15.21ZM228.48,419.9h3.9c1.19,0,2.66-.59,2.66-2.51s-1.21-2.51-2.62-2.51h-3.94v5.03Z"/>
    <path class="cls-4" d="M246.78,412.7h2.83l5.86,15.21h-2.85l-1.43-4.03h-6.07l-1.43,4.03h-2.75l5.84-15.21ZM245.84,421.86h4.64l-2.28-6.54h-.06l-2.3,6.54Z"/>
    <path class="cls-4" d="M262.93,422.84c0,2.32,1.72,3.26,3.85,3.26,2.34,0,3.22-1.17,3.22-2.3s-.64-1.64-1.26-1.88c-1.09-.4-2.43-.68-4.54-1.25-2.62-.68-3.37-2.28-3.37-3.86,0-3.07,2.81-4.47,5.56-4.47,3.15,0,5.83,1.68,5.83,4.86h-2.66c-.15-1.96-1.43-2.68-3.28-2.68-1.24,0-2.79.45-2.79,1.98,0,1.09.72,1.64,1.81,1.96.23.06,3.6.94,4.39,1.17,1.98.62,2.96,2.26,2.96,3.88,0,3.41-3.05,4.77-6.05,4.77-3.47,0-6.28-1.66-6.35-5.43h2.66Z"/>
    <path class="cls-4" d="M280.99,422.84c0,2.32,1.73,3.26,3.86,3.26,2.34,0,3.22-1.17,3.22-2.3s-.64-1.64-1.26-1.88c-1.09-.4-2.43-.68-4.54-1.25-2.62-.68-3.37-2.28-3.37-3.86,0-3.07,2.81-4.47,5.56-4.47,3.15,0,5.84,1.68,5.84,4.86h-2.66c-.15-1.96-1.43-2.68-3.28-2.68-1.24,0-2.79.45-2.79,1.98,0,1.09.72,1.64,1.81,1.96.23.06,3.6.94,4.39,1.17,1.98.62,2.96,2.26,2.96,3.88,0,3.41-3.04,4.77-6.05,4.77-3.47,0-6.28-1.66-6.35-5.43h2.66Z"/>
    <path class="cls-4" d="M297.31,412.7h2.66v15.21h-2.66v-15.21Z"/>
    <path class="cls-4" d="M321.25,420.3c0,4.37-2.75,7.97-7.29,7.97s-7.28-3.6-7.28-7.97,2.75-7.96,7.28-7.96,7.29,3.64,7.29,7.96ZM309.34,420.3c0,2.92,1.36,5.79,4.62,5.79s4.62-2.88,4.62-5.79-1.36-5.79-4.62-5.79-4.62,2.88-4.62,5.79Z"/>
    <path class="cls-4" d="M327.83,412.7h2.81l6.94,11.2h.04v-11.2h2.54v15.21h-2.81l-6.92-11.18h-.06v11.18h-2.53v-15.21Z"/>
    <path class="cls-4" d="M357.76,412.7h10.5v2.3h-7.84v3.98h6.88v2.17h-6.88v6.75h-2.66v-15.21Z"/>
    <path class="cls-4" d="M388.41,420.3c0,4.37-2.75,7.97-7.28,7.97s-7.28-3.6-7.28-7.97,2.75-7.96,7.28-7.96,7.28,3.64,7.28,7.96ZM376.5,420.3c0,2.92,1.36,5.79,4.62,5.79s4.62-2.88,4.62-5.79-1.36-5.79-4.62-5.79-4.62,2.88-4.62,5.79Z"/>
    <path class="cls-4" d="M395.1,412.7h7.26c3.35,0,5.03,1.53,5.03,4.11,0,2.92-2,3.66-2.51,3.83v.04c.92.11,2.26.83,2.26,3.22,0,1.79.25,3.38.83,4h-2.85c-.4-.66-.4-1.49-.4-2.24,0-2.79-.58-4.03-3.03-4.03h-3.92v6.26h-2.66v-15.21ZM397.76,419.62h4.37c1.7,0,2.6-.81,2.6-2.43,0-1.96-1.26-2.32-2.64-2.32h-4.32v4.75Z"/>
    <path class="cls-4" d="M423.09,412.7h12.31v2.3h-4.83v12.91h-2.66v-12.91h-4.81v-2.3Z"/>
    <path class="cls-4" d="M441.37,412.7h2.66v6.05h6.92v-6.05h2.66v15.21h-2.66v-6.86h-6.92v6.86h-2.66v-15.21Z"/>
    <path class="cls-4" d="M461.07,412.7h10.95v2.3h-8.28v3.98h7.67v2.17h-7.67v4.45h8.43v2.3h-11.1v-15.21Z"/>
    <path class="cls-4" d="M488.93,412.7h7.39c2.73,0,4.52,1.23,4.52,3.77,0,1.53-.79,2.64-2.17,3.24v.04c1.88.41,2.85,1.86,2.85,3.92,0,2.38-1.66,4.24-5.6,4.24h-6.98v-15.21ZM491.59,419.07h4.34c1.28,0,2.24-.75,2.24-2.11,0-1.53-.79-2.09-2.24-2.09h-4.34v4.2ZM491.59,425.74h4.71c1.62,0,2.56-.88,2.56-2.41s-.94-2.34-2.56-2.34h-4.71v4.75Z"/>
    <path class="cls-4" d="M508.19,412.7h10.95v2.3h-8.29v3.98h7.67v2.17h-7.67v4.45h8.44v2.3h-11.1v-15.21Z"/>
    <path class="cls-4" d="M527.61,422.84c0,2.32,1.73,3.26,3.85,3.26,2.34,0,3.22-1.17,3.22-2.3s-.64-1.64-1.25-1.88c-1.09-.4-2.43-.68-4.54-1.25-2.62-.68-3.37-2.28-3.37-3.86,0-3.07,2.81-4.47,5.56-4.47,3.15,0,5.84,1.68,5.84,4.86h-2.66c-.15-1.96-1.43-2.68-3.28-2.68-1.24,0-2.79.45-2.79,1.98,0,1.09.72,1.64,1.81,1.96.23.06,3.6.94,4.39,1.17,1.98.62,2.96,2.26,2.96,3.88,0,3.41-3.04,4.77-6.05,4.77-3.47,0-6.28-1.66-6.35-5.43h2.66Z"/>
    <path class="cls-4" d="M542.48,412.7h12.31v2.3h-4.83v12.91h-2.66v-12.91h-4.81v-2.3Z"/>
  </g>
  <g>
    <path class="cls-5" d="M149.46,378.13h-9.53v-41.58h9.53v41.58Z"/>
    <path class="cls-5" d="M199.49,378.13h-9.45l-19.91-28.76v28.76h-9.48v-41.58h9.36c.93,0,1.75.13,2.47.4.72.27,1.27.69,1.66,1.25l14.56,21.3c.21.31.4.65.55,1.02.16.37.29.71.41,1.03.12.32.2.6.26.83.06.23.09.38.09.43v-26.26h9.48v41.58Z"/>
    <path class="cls-5" d="M205.94,345.39v-8.88h32.67v8.88h-11.57v32.74h-9.5v-32.74h-11.6Z"/>
    <path class="cls-5" d="M272.76,378.13h-27.73v-41.58h27.73v8.88h-18.23v7.28h14.82v8.88h-14.82v7.66h18.23v8.88Z"/>
    <path class="cls-5" d="M290.93,378.13h-9.5v-41.58h16.33c1.57,0,3.02.2,4.34.61,1.33.41,2.53.95,3.6,1.64,1.08.69,2.02,1.5,2.85,2.44.82.94,1.51,1.94,2.06,3.02.55,1.07.97,2.18,1.25,3.32.28,1.14.42,2.27.42,3.4s-.12,2.2-.36,3.29c-.24,1.09-.62,2.16-1.15,3.21-.52,1.04-1.2,2.05-2.04,3-.83.96-1.84,1.85-3.02,2.68l11.1,14.97h-8.11c-.17,0-.47-.03-.89-.09-.42-.06-.89-.2-1.41-.41-.52-.21-1.08-.53-1.66-.96-.58-.43-1.13-1.02-1.66-1.77l-6.97-9.43h-5.2v12.65ZM298.25,355.93c.58,0,1.14-.15,1.69-.43.54-.29,1.02-.67,1.44-1.13.42-.46.75-.99,1-1.58.25-.59.38-1.19.38-1.79s-.13-1.2-.38-1.78c-.25-.59-.59-1.12-1-1.58-.42-.47-.9-.84-1.44-1.13-.54-.29-1.1-.43-1.69-.43h-7.32v9.87h7.32Z"/>
    <path class="cls-5" d="M360.8,378.13h-9.45l-19.91-28.76v28.76h-9.48v-41.58h9.36c.93,0,1.76.13,2.47.4.72.27,1.27.69,1.66,1.25l14.56,21.3c.21.31.4.65.55,1.02.16.37.29.71.41,1.03.12.32.2.6.26.83.06.23.09.38.09.43v-26.26h9.48v41.58Z"/>
    <path class="cls-5" d="M383.16,336.54h8.2l18.2,41.58h-6.13c-.64,0-1.26-.08-1.85-.25-.59-.16-1.14-.41-1.64-.72-.5-.32-.96-.71-1.37-1.16-.41-.46-.74-.97-.99-1.55l-2.04-4.61h-16.57l-1.98,4.61c-.23.52-.56,1.01-.97,1.45-.42.45-.89.84-1.41,1.18-.52.34-1.08.6-1.68.78-.6.18-1.2.28-1.8.28h-6.16l18.2-41.58ZM382.78,361.21h8.89l-3.63-8.71c-.18-.41-.31-.79-.41-1.13s-.17-.66-.23-.93c-.08-.31-.13-.6-.15-.87-.04.27-.1.57-.17.9-.06.27-.14.58-.25.93-.11.35-.24.71-.39,1.1l-3.66,8.71Z"/>
    <path class="cls-5" d="M405.28,345.39v-8.88h32.67v8.88h-11.57v32.74h-9.51v-32.74h-11.6Z"/>
    <path class="cls-5" d="M454.95,378.13h-9.53v-41.58h9.53v41.58Z"/>
    <path class="cls-5" d="M463.7,357.32c0-1.96.26-3.84.77-5.64.51-1.81,1.23-3.5,2.16-5.06.93-1.57,2.05-2.99,3.34-4.28,1.3-1.29,2.74-2.39,4.33-3.31,1.59-.92,3.29-1.63,5.12-2.13,1.82-.5,3.71-.76,5.67-.76s3.85.25,5.67.76c1.82.5,3.53,1.21,5.11,2.13,1.59.92,3.03,2.02,4.33,3.31,1.3,1.29,2.41,2.71,3.34,4.28.93,1.57,1.65,3.25,2.16,5.06.51,1.81.77,3.69.77,5.64s-.26,3.83-.77,5.64c-.51,1.81-1.24,3.5-2.16,5.06-.93,1.57-2.05,2.99-3.34,4.28-1.3,1.29-2.74,2.39-4.33,3.31-1.59.92-3.29,1.63-5.11,2.13-1.82.5-3.71.75-5.67.75s-3.87-.25-5.68-.75c-1.81-.5-3.51-1.21-5.1-2.13-1.59-.92-3.03-2.02-4.33-3.31-1.3-1.29-2.41-2.71-3.34-4.28-.93-1.57-1.65-3.26-2.16-5.06-.51-1.81-.77-3.69-.77-5.64ZM473.2,357.32c0,1.6.32,3.12.96,4.54.64,1.42,1.5,2.67,2.59,3.73,1.08,1.07,2.34,1.9,3.78,2.51,1.43.61,2.96.92,4.56.92s3.11-.31,4.55-.92c1.44-.61,2.71-1.45,3.79-2.51,1.08-1.06,1.95-2.31,2.59-3.73.64-1.42.96-2.94.96-4.54s-.32-3.12-.96-4.54c-.64-1.42-1.5-2.66-2.59-3.71-1.09-1.05-2.35-1.89-3.79-2.51-1.44-.62-2.96-.93-4.55-.93s-3.13.31-4.56.93c-1.43.62-2.69,1.46-3.78,2.51-1.09,1.06-1.95,2.29-2.59,3.71-.64,1.42-.96,2.94-.96,4.54Z"/>
    <path class="cls-5" d="M553.11,378.13h-9.45l-19.91-28.76v28.76h-9.47v-41.58h9.36c.93,0,1.75.13,2.47.4.72.27,1.27.69,1.66,1.25l14.56,21.3c.21.31.4.65.55,1.02.15.37.29.71.41,1.03.12.32.2.6.26.83.06.23.09.38.09.43v-26.26h9.48v41.58Z"/>
    <path class="cls-5" d="M575.46,336.54h8.2l18.2,41.58h-6.13c-.64,0-1.26-.08-1.85-.25-.59-.16-1.14-.41-1.64-.72-.5-.32-.96-.71-1.37-1.16-.41-.46-.74-.97-.99-1.55l-2.03-4.61h-16.57l-1.98,4.61c-.23.52-.56,1.01-.97,1.45-.42.45-.89.84-1.41,1.18-.52.34-1.09.6-1.69.78-.6.18-1.2.28-1.8.28h-6.16l18.2-41.58ZM575.08,361.21h8.89l-3.63-8.71c-.17-.41-.31-.79-.41-1.13-.1-.35-.17-.66-.23-.93-.08-.31-.13-.6-.14-.87-.04.27-.1.57-.17.9-.06.27-.14.58-.25.93-.11.35-.24.71-.39,1.1l-3.66,8.71Z"/>
    <path class="cls-5" d="M605.89,378.13v-41.58h9.5v32.7h16.45v8.88h-25.96Z"/>
  </g>
  <g>
    <path class="cls-1" d="M414.7,153.24l-.16.56c.07-.08.14-.17.21-.25l-.05-.31Z"/>
    <path class="cls-3" d="M440.91,120.12c1.8,1.15,3.35,2.56,4.65,4.23,15.27-13.58,31.29-24.73,47.08-33.18-16.82,6.36-34.5,16.14-51.73,28.95Z"/>
    <path class="cls-3" d="M382.72,293.68c-1.5-1.61-2.87-3.32-4.1-5.12-.76.34-1.66.51-2.69.51h-12.45c-2.51,0-5.09-.27-7.75-.82-2.66-.54-5.05-1.45-7.16-2.7-.48-.28-.93-.59-1.37-.9,1.96,8.02,5.57,15.07,10.96,20.82,21.84,23.32,66.77,19.02,113.24-6.93-37.18,14.83-70.72,14.32-88.67-4.85Z"/>
    <g>
      <path class="cls-2" d="M574.25,118.46c3.91,0,7.16.75,9.75,2.23,2.58,1.49,4.74,3.45,6.46,5.87,1.72,2.43,3.13,5.21,4.23,8.34,1.09,3.14,2.03,6.34,2.82,9.63,6.26,25.37,11.43,46.28,15.51,62.73,4.07,16.45,7.28,29.72,9.63,39.82,2.35,10.1,3.99,17.58,4.93,22.44.94,4.86,1.41,8.22,1.41,10.1,0,2.19-.51,3.68-1.53,4.46-1.02.79-2.62,1.17-4.82,1.17h-11.98c-6.74,0-12.1-.82-16.09-2.47-3.99-1.64-7.05-4.03-9.16-7.16-2.11-3.13-3.64-6.93-4.58-11.4-.94-4.46-1.73-9.51-2.35-15.15h-40.88l-7.75,32.42c-.79,2.51-2.58,3.76-5.4,3.76h-12.45c-2.51,0-5.09-.27-7.75-.82-2.67-.55-5.05-1.45-7.17-2.7-2.11-1.25-3.88-2.86-5.29-4.82-1.41-1.96-2.11-4.35-2.11-7.17,0-3.44,1.09-9.08,3.29-16.92,2.19-7.83,4.97-16.72,8.34-26.66,3.37-9.94,7.12-20.36,11.28-31.25,4.15-10.88,8.18-21.18,12.1-30.9,3.91-9.71,7.48-18.24,10.69-25.61,3.21-7.36,5.67-12.53,7.4-15.51,1.25-2.19,2.39-3.48,3.41-3.88,1.02-.39,2.94-.59,5.76-.59h22.32ZM546.05,215.03h27.02l-9.87-62.03-17.15,62.03Z"/>
      <path class="cls-2" d="M163.24,285.52c-8.77,0-15.04-1.72-18.8-5.17-3.76-3.44-5.64-8.38-5.64-14.8,0-3.13.24-8.49.7-16.09.47-7.6,1.09-16.25,1.88-25.96.78-9.71,1.56-19.97,2.35-30.78.78-10.81,1.56-20.99,2.35-30.54.78-9.55,1.41-17.93,1.88-25.14.47-7.2.71-12.14.71-14.8,0-2.35,1.25-3.52,3.76-3.52h82.7c.94,0,1.8.23,2.58.7.78.47,1.17,1.33,1.17,2.58l-.94,13.86c-.32,4.7-1.61,8.5-3.88,11.4-2.27,2.9-6.93,4.35-13.98,4.35h-32.42l-2.35,33.13h33.36c.94,0,1.8.24,2.58.71.78.47,1.17,1.33,1.17,2.58l-.94,13.86c-.32,4.7-1.61,8.5-3.88,11.39-2.27,2.9-6.93,4.35-13.98,4.35h-20.44l-2.58,35.01h51.69c.94,0,1.8.27,2.58.82.78.55,1.18,1.37,1.18,2.47l-.94,13.86c-.32,4.7-1.61,8.5-3.88,11.39-2.27,2.9-6.93,4.35-13.98,4.35h-54.04Z"/>
      <path class="cls-2" d="M270.91,285.52c-8.77,0-15.04-1.72-18.8-5.17-3.76-3.44-5.64-8.38-5.64-14.8,0-3.13.24-8.49.7-16.09.47-7.6,1.09-16.25,1.88-25.96.78-9.71,1.56-19.97,2.35-30.78.78-10.81,1.56-20.99,2.35-30.54.78-9.55,1.41-17.93,1.88-25.14.47-7.2.7-12.14.7-14.8,0-2.35,1.25-3.52,3.76-3.52h12.92c8.77,0,14.84,1.69,18.21,5.05,3.37,3.37,5.05,8.34,5.05,14.92,0,.79-.04,1.49-.12,2.12-.08.63-.12,1.33-.12,2.12l-7.75,109.72h42.29c.94,0,1.8.27,2.58.82.78.55,1.17,1.37,1.17,2.47l-.94,13.86c-.32,4.7-1.61,8.5-3.88,11.39-2.27,2.9-6.93,4.35-13.98,4.35h-44.64Z"/>
      <path class="cls-2" d="M427,118.71c3.91,0,7.17.75,9.75,2.23,2.58,1.49,4.74,3.45,6.46,5.87,1.72,2.43,3.13,5.21,4.23,8.34,1.09,3.13,2.03,6.34,2.82,9.63,6.26,25.37,11.43,46.28,15.51,62.73,4.07,16.45,7.28,29.72,9.63,39.82,2.35,10.1,3.99,17.58,4.93,22.44.94,4.86,1.41,8.22,1.41,10.1,0,2.2-.51,3.68-1.53,4.46-1.02.79-2.62,1.18-4.82,1.18h-11.98c-6.74,0-12.1-.82-16.09-2.47-3.99-1.64-7.05-4.03-9.16-7.16-2.11-3.13-3.64-6.93-4.58-11.39-.94-4.46-1.73-9.52-2.35-15.15h-40.88l-7.75,32.42c-.79,2.51-2.58,3.76-5.4,3.76h-12.45c-2.51,0-5.09-.27-7.75-.82-2.67-.55-5.05-1.45-7.17-2.7-2.12-1.25-3.88-2.86-5.29-4.82-1.41-1.96-2.11-4.35-2.11-7.17,0-3.44,1.09-9.08,3.29-16.92,2.19-7.83,4.97-16.72,8.34-26.66,3.37-9.95,7.12-20.36,11.28-31.25,4.15-10.89,8.18-21.18,12.1-30.9,3.91-9.71,7.48-18.24,10.69-25.61,3.21-7.36,5.68-12.53,7.4-15.51,1.25-2.19,2.39-3.48,3.41-3.88,1.02-.39,2.94-.59,5.76-.59h22.32ZM398.8,215.27h27.02l-9.87-62.02-17.15,62.02Z"/>
    </g>
    <g>
      <path class="cls-3" d="M623.24,73.59c21.48,22.93,14.84,66.39-12.9,110.32l1.29,5.28c31.52-46.23,40.07-93.13,17.46-117.26-15.81-16.88-43.82-18.98-75.65-9.18,29.38-7.78,54.97-4.99,69.81,10.85Z"/>
      <path class="cls-3" d="M607.31,78.93c18.05,20.25,17.83,52.95-.74,89.58l2.31,9.44c25.4-41.55,30.04-80.88,9.29-102.58-17.21-17.99-48.71-18.4-83.64-4.91,29.99-8.08,57.62-8.55,72.78,8.46Z"/>
      <path class="cls-3" d="M593.66,91.19c13.33,13.86,15.65,35.55,8.73,60.23l1.91,7.82c13.12-31.6,13.05-60.23-3.32-77.26-10-10.41-24.44-14.6-42.05-14.3-18.05.92-33.81,7.65-50.79,16.68,41.62-16.37,67.84-11.57,85.53,6.83Z"/>
    </g>
  </g>
</svg>