<?xml version="1.0" encoding="UTF-8"?>
<!DOCTYPE svg PUBLIC "-//W3C//DTD SVG 1.1//EN" "http://www.w3.org/Graphics/SVG/1.1/DTD/svg11.dtd">
<svg xmlns="http://www.w3.org/2000/svg" version="1.1" width="295px" height="295px" style="shape-rendering:geometricPrecision; text-rendering:geometricPrecision; image-rendering:optimizeQuality; fill-rule:evenodd; clip-rule:evenodd" xmlns:xlink="http://www.w3.org/1999/xlink">
<g><path style="opacity:1" fill="#0d2e6e" d="M -0.5,-0.5 C 97.8333,-0.5 196.167,-0.5 294.5,-0.5C 294.5,97.8333 294.5,196.167 294.5,294.5C 196.167,294.5 97.8333,294.5 -0.5,294.5C -0.5,196.167 -0.5,97.8333 -0.5,-0.5 Z"/></g>
<g><path style="opacity:1" fill="#085360" d="M 234.5,70.5 C 236.39,70.2965 237.89,70.9632 239,72.5C 244.185,80.8017 244.852,89.4684 241,98.5C 238.637,104.059 236.137,109.559 233.5,115C 233.57,115.765 233.903,116.265 234.5,116.5C 234.5,117.167 234.167,117.5 233.5,117.5C 232.262,115.786 231.595,113.786 231.5,111.5C 231.435,111.062 231.601,110.728 232,110.5C 232.333,111.167 232.667,111.833 233,112.5C 237.703,104.601 240.536,96.1011 241.5,87C 241.942,80.2023 239.608,74.7023 234.5,70.5 Z"/></g>
<g><path style="opacity:1" fill="#053968" d="M 239.5,69.5 C 242.888,69.1878 245.388,70.5211 247,73.5C 247.5,80.8258 247.666,88.1591 247.5,95.5C 246.5,95.5 245.5,95.5 244.5,95.5C 247.1,85.8868 245.433,77.2202 239.5,69.5 Z"/></g>
<g><path style="opacity:1" fill="#2e8f96" d="M 234.5,70.5 C 239.608,74.7023 241.942,80.2023 241.5,87C 240.536,96.1011 237.703,104.601 233,112.5C 232.667,111.833 232.333,111.167 232,110.5C 231.601,110.728 231.435,111.062 231.5,111.5C 230.596,110.791 230.263,109.791 230.5,108.5C 237.359,99.0218 238.859,88.6885 235,77.5C 230.11,71.1399 223.61,68.1399 215.5,68.5C 217.747,67.3229 222.08,67.1562 228.5,68C 230.641,68.5725 232.641,69.4058 234.5,70.5 Z"/></g>
<g><path style="opacity:1" fill="#1c3560" d="M 108.5,124.5 C 109.283,114.495 109.783,104.495 110,94.5C 109.477,92.7774 108.477,91.444 107,90.5C 103.224,89.6058 99.3905,89.2725 95.5,89.5C 95.5,87.8333 95.5,86.1667 95.5,84.5C 101.655,83.408 106.822,85.0747 111,89.5C 111.667,99.8333 111.667,110.167 111,120.5C 110.8,122.32 109.966,123.653 108.5,124.5 Z"/></g>
<g><path style="opacity:1" fill="#377c9e" d="M 182.5,79.5 C 183.552,79.3505 184.552,79.5172 185.5,80C 181.991,82.0297 178.658,84.1964 175.5,86.5C 173.093,87.7945 170.926,89.4611 169,91.5C 168.308,90.9747 167.808,90.3081 167.5,89.5C 172.393,85.8952 177.393,82.5618 182.5,79.5 Z"/></g>
<g><path style="opacity:1" fill="#328894" d="M 215.5,69.5 C 230.702,71.5328 236.869,80.1994 234,95.5C 233.399,98.6366 232.399,101.637 231,104.5C 231.467,99.0079 231.301,93.6745 230.5,88.5C 229.578,85.8736 228.578,83.2069 227.5,80.5C 226.675,79.6143 225.675,79.281 224.5,79.5C 223.314,76.0637 220.981,73.7303 217.5,72.5C 216.602,71.8423 215.602,71.1757 214.5,70.5C 214.624,69.8933 214.957,69.56 215.5,69.5 Z"/></g>
<g><path style="opacity:1" fill="#074b5a" d="M 215.5,69.5 C 215.5,69.1667 215.5,68.8333 215.5,68.5C 223.61,68.1399 230.11,71.1399 235,77.5C 238.859,88.6885 237.359,99.0218 230.5,108.5C 229.657,104.127 228.657,99.7933 227.5,95.5C 228.5,95.5 229.5,95.5 230.5,95.5C 230.5,93.1667 230.5,90.8333 230.5,88.5C 231.301,93.6745 231.467,99.0079 231,104.5C 232.399,101.637 233.399,98.6366 234,95.5C 236.869,80.1994 230.702,71.5328 215.5,69.5 Z"/></g>
<g><path style="opacity:1" fill="#173266" d="M 224.5,79.5 C 225.675,79.281 226.675,79.6143 227.5,80.5C 228.578,83.2069 229.578,85.8736 230.5,88.5C 230.5,90.8333 230.5,93.1667 230.5,95.5C 229.5,95.5 228.5,95.5 227.5,95.5C 226.31,93.6455 224.977,91.8121 223.5,90C 218.167,89.3333 212.833,89.3333 207.5,90C 203.469,96.966 200.136,104.133 197.5,111.5C 197.752,105.857 196.752,100.524 194.5,95.5C 198.517,94.3243 201.517,91.8243 203.5,88C 210.191,87.8309 216.858,87.3309 223.5,86.5C 218.208,85.5052 212.875,85.1718 207.5,85.5C 207.5,84.1667 207.5,82.8333 207.5,81.5C 213.093,81.1934 218.593,81.5268 224,82.5C 224.483,81.552 224.649,80.552 224.5,79.5 Z"/></g>
<g><path style="opacity:1" fill="#f7faf9" d="M 87.5,89.5 C 87.665,92.8499 87.4983,96.1832 87,99.5C 86.1667,100.333 85.3333,101.167 84.5,102C 78.8431,102.499 73.1764,102.666 67.5,102.5C 67.5,106.833 67.5,111.167 67.5,115.5C 72.1667,115.5 76.8333,115.5 81.5,115.5C 82.3812,127.041 77.0478,131.374 65.5,128.5C 65.5,132.833 65.5,137.167 65.5,141.5C 72.5,141.5 79.5,141.5 86.5,141.5C 86.979,145.911 86.3124,150.078 84.5,154C 73.8333,154.667 63.1667,154.667 52.5,154C 49.6096,151.336 48.2763,148.003 48.5,144C 50.0655,125.846 51.3988,107.68 52.5,89.5C 64.1667,89.5 75.8333,89.5 87.5,89.5 Z"/></g>
<g><path style="opacity:1" fill="#1b3260" d="M 95.5,89.5 C 94.2536,100.607 92.9203,111.607 91.5,122.5C 91.6646,119.482 91.498,116.482 91,113.5C 87.6507,117.813 86.1507,117.146 86.5,111.5C 87.8333,111.5 89.1667,111.5 90.5,111.5C 90.8242,107.445 90.4909,103.445 89.5,99.5C 88.0256,100.436 87.0256,101.77 86.5,103.5C 80.5368,104.496 74.5368,104.829 68.5,104.5C 68.2229,107.448 68.5562,110.281 69.5,113C 73.4232,113.979 77.0899,113.479 80.5,111.5C 81.4287,112.689 81.762,114.022 81.5,115.5C 76.8333,115.5 72.1667,115.5 67.5,115.5C 67.5,111.167 67.5,106.833 67.5,102.5C 73.1764,102.666 78.8431,102.499 84.5,102C 85.3333,101.167 86.1667,100.333 87,99.5C 87.4983,96.1832 87.665,92.8499 87.5,89.5C 85.0521,88.5269 82.3854,88.1936 79.5,88.5C 81.7445,87.0702 84.2445,86.0702 87,85.5C 88.1447,87.9258 89.478,90.2591 91,92.5C 92.2515,90.9991 93.2515,89.3325 94,87.5C 94.2784,88.4158 94.7784,89.0825 95.5,89.5 Z"/></g>
<g><path style="opacity:1" fill="#f7fafa" d="M 95.5,89.5 C 99.3905,89.2725 103.224,89.6058 107,90.5C 108.477,91.444 109.477,92.7774 110,94.5C 109.783,104.495 109.283,114.495 108.5,124.5C 108.5,125.5 108.5,126.5 108.5,127.5C 107.514,131.97 107.181,136.637 107.5,141.5C 112.975,142.489 118.642,142.822 124.5,142.5C 124.5,144.5 124.5,146.5 124.5,148.5C 124.528,150.582 123.861,152.416 122.5,154C 113.167,154.667 103.833,154.667 94.5,154C 90.9039,150.265 89.5706,145.765 90.5,140.5C 91.4128,134.559 91.7461,128.559 91.5,122.5C 92.9203,111.607 94.2536,100.607 95.5,89.5 Z"/></g>
<g><path style="opacity:1" fill="#327c98" d="M 239.5,69.5 C 245.433,77.2202 247.1,85.8868 244.5,95.5C 241.553,102.668 238.22,109.668 234.5,116.5C 233.903,116.265 233.57,115.765 233.5,115C 236.137,109.559 238.637,104.059 241,98.5C 244.852,89.4684 244.185,80.8017 239,72.5C 237.89,70.9632 236.39,70.2965 234.5,70.5C 232.641,69.4058 230.641,68.5725 228.5,68C 222.08,67.1562 217.747,67.3229 215.5,68.5C 215.5,68.8333 215.5,69.1667 215.5,69.5C 214.957,69.56 214.624,69.8933 214.5,70.5C 215.602,71.1757 216.602,71.8423 217.5,72.5C 211.465,72.5941 205.465,72.7608 199.5,73C 201.674,70.6481 204.341,69.4814 207.5,69.5C 207.5,68.5 207.5,67.5 207.5,66.5C 213.397,66.367 219.23,65.7003 225,64.5C 230.172,65.2792 235.005,66.9458 239.5,69.5 Z"/></g>
<g><path style="opacity:1" fill="#f7fafa" d="M 227.5,95.5 C 228.657,99.7933 229.657,104.127 230.5,108.5C 230.263,109.791 230.596,110.791 231.5,111.5C 231.595,113.786 232.262,115.786 233.5,117.5C 235.215,126.351 237.215,135.018 239.5,143.5C 239.433,144.959 239.766,146.292 240.5,147.5C 240.756,149.792 240.423,151.959 239.5,154C 233.986,154.93 228.652,154.43 223.5,152.5C 223.443,151.391 223.11,150.391 222.5,149.5C 221.422,146.598 220.756,143.598 220.5,140.5C 215.167,140.5 209.833,140.5 204.5,140.5C 203.659,144.866 202.659,149.199 201.5,153.5C 187.742,156.907 183.242,151.907 188,138.5C 191.017,129.42 194.184,120.42 197.5,111.5C 200.136,104.133 203.469,96.966 207.5,90C 212.833,89.3333 218.167,89.3333 223.5,90C 224.977,91.8121 226.31,93.6455 227.5,95.5 Z"/></g>
<g><path style="opacity:1" fill="#f9fbfa" d="M 146.5,143.5 C 145.652,147.227 144.652,150.893 143.5,154.5C 139.4,154.763 135.4,154.43 131.5,153.5C 129.078,152.308 128.078,150.308 128.5,147.5C 129.768,140.703 131.435,134.036 133.5,127.5C 135.737,123.466 137.404,119.132 138.5,114.5C 141.772,106.364 145.439,98.3641 149.5,90.5C 162.507,85.7441 170.007,90.0775 172,103.5C 174.843,115.873 177.843,128.206 181,140.5C 182.122,145.102 182.622,149.768 182.5,154.5C 169.982,157.77 163.648,153.104 163.5,140.5C 157.833,140.5 152.167,140.5 146.5,140.5C 146.5,141.5 146.5,142.5 146.5,143.5 Z"/></g>
<g><path style="opacity:1" fill="#1f3464" d="M 217.5,121.5 C 217.5,123.167 217.5,124.833 217.5,126.5C 214.5,126.5 211.5,126.5 208.5,126.5C 210.198,118.707 212.365,111.041 215,103.5C 215.998,109.487 216.832,115.487 217.5,121.5 Z"/></g>
<g><path style="opacity:1" fill="#1d3462" d="M 160.5,126.5 C 156.988,127.055 153.988,126.388 151.5,124.5C 153.016,117.781 154.849,111.114 157,104.5C 158.785,111.734 159.952,119.067 160.5,126.5 Z"/></g>
<g><path style="opacity:1" fill="#70809e" d="M 217.5,121.5 C 218.461,123.265 218.795,125.265 218.5,127.5C 214.958,127.813 211.625,127.479 208.5,126.5C 211.5,126.5 214.5,126.5 217.5,126.5C 217.5,124.833 217.5,123.167 217.5,121.5 Z"/></g>
<g><path style="opacity:1" fill="#788ab4" d="M 151.5,124.5 C 153.988,126.388 156.988,127.055 160.5,126.5C 157.375,127.479 154.042,127.813 150.5,127.5C 150.263,126.209 150.596,125.209 151.5,124.5 Z"/></g>
<g><path style="opacity:1" fill="#122e6a" d="M 91.5,122.5 C 91.7461,128.559 91.4128,134.559 90.5,140.5C 89.1667,140.833 87.8333,141.167 86.5,141.5C 79.5,141.5 72.5,141.5 65.5,141.5C 65.5,137.167 65.5,132.833 65.5,128.5C 77.0478,131.374 82.3812,127.041 81.5,115.5C 81.762,114.022 81.4287,112.689 80.5,111.5C 77.0899,113.479 73.4232,113.979 69.5,113C 68.5562,110.281 68.2229,107.448 68.5,104.5C 74.5368,104.829 80.5368,104.496 86.5,103.5C 87.0256,101.77 88.0256,100.436 89.5,99.5C 90.4909,103.445 90.8242,107.445 90.5,111.5C 89.1667,111.5 87.8333,111.5 86.5,111.5C 86.1507,117.146 87.6507,117.813 91,113.5C 91.498,116.482 91.6646,119.482 91.5,122.5 Z"/></g>
<g><path style="opacity:1" fill="#16355e" d="M 244.5,95.5 C 244.392,103.967 241.559,111.3 236,117.5C 235.545,123.127 236.545,128.461 239,133.5C 239.498,136.817 239.665,140.15 239.5,143.5C 237.215,135.018 235.215,126.351 233.5,117.5C 234.167,117.5 234.5,117.167 234.5,116.5C 238.22,109.668 241.553,102.668 244.5,95.5 Z"/></g>
<g><path style="opacity:1" fill="#0f306b" d="M 150.5,161.5 C 148.442,160.067 146.108,159.4 143.5,159.5C 143.5,158.5 143.5,157.5 143.5,156.5C 143.5,155.833 143.5,155.167 143.5,154.5C 144.652,150.893 145.652,147.227 146.5,143.5C 151.849,142.329 157.182,142.329 162.5,143.5C 162.627,147.262 163.294,150.928 164.5,154.5C 166.793,156.085 169.127,157.585 171.5,159C 164.769,161.28 157.769,162.114 150.5,161.5 Z"/></g>
<g><path style="opacity:1" fill="#1f3761" d="M 79.5,88.5 C 82.3854,88.1936 85.0521,88.5269 87.5,89.5C 75.8333,89.5 64.1667,89.5 52.5,89.5C 51.3988,107.68 50.0655,125.846 48.5,144C 48.2763,148.003 49.6096,151.336 52.5,154C 63.1667,154.667 73.8333,154.667 84.5,154C 86.3124,150.078 86.979,145.911 86.5,141.5C 87.8333,141.167 89.1667,140.833 90.5,140.5C 89.5706,145.765 90.9039,150.265 94.5,154C 103.833,154.667 113.167,154.667 122.5,154C 123.861,152.416 124.528,150.582 124.5,148.5C 125.468,146.393 125.802,144.059 125.5,141.5C 119.5,141.5 113.5,141.5 107.5,141.5C 107.181,136.637 107.514,131.97 108.5,127.5C 108.525,130.96 109.192,134.294 110.5,137.5C 115.637,138.248 120.803,138.915 126,139.5C 127.107,139.415 128.107,139.081 129,138.5C 130.108,134.914 130.608,131.247 130.5,127.5C 131.5,127.5 132.5,127.5 133.5,127.5C 131.435,134.036 129.768,140.703 128.5,147.5C 128.078,150.308 129.078,152.308 131.5,153.5C 130.686,159.192 133.019,163.192 138.5,165.5C 140.588,167.02 142.922,168.02 145.5,168.5C 139.951,168.912 135.117,166.912 131,162.5C 129.966,159.014 128.633,155.681 127,152.5C 124.18,153.342 122.68,155.676 122.5,159.5C 119.978,159.872 117.978,159.039 116.5,157C 109.117,156.8 101.784,156.3 94.5,155.5C 93.1552,156.347 92.1552,157.513 91.5,159C 88.1735,159.97 86.0068,158.803 85,155.5C 84.2496,156.126 83.4162,156.626 82.5,157C 73.8333,157.333 65.1667,157.667 56.5,158C 55.737,158.944 54.737,159.444 53.5,159.5C 51.5273,158.194 49.8606,156.527 48.5,154.5C 48.5675,138.297 48.2342,122.131 47.5,106C 48.7786,99.2471 49.7786,92.4137 50.5,85.5C 51.1667,85.1667 51.8333,84.8333 52.5,84.5C 61.0865,88.0231 70.0865,89.3565 79.5,88.5 Z"/></g>
<g><path style="opacity:1" fill="#a8b8d1" d="M 107.5,141.5 C 113.5,141.5 119.5,141.5 125.5,141.5C 125.802,144.059 125.468,146.393 124.5,148.5C 124.5,146.5 124.5,144.5 124.5,142.5C 118.642,142.822 112.975,142.489 107.5,141.5 Z"/></g>
<g><path style="opacity:1" fill="#1b3561" d="M 182.5,79.5 C 177.393,82.5618 172.393,85.8952 167.5,89.5C 167.808,90.3081 168.308,90.9747 169,91.5C 170.926,89.4611 173.093,87.7945 175.5,86.5C 173.556,89.035 172.556,92.035 172.5,95.5C 172.596,98.4512 173.429,101.118 175,103.5C 175.333,107.833 175.667,112.167 176,116.5C 179.996,120.821 181.33,125.821 180,131.5C 181.11,133.037 182.61,133.703 184.5,133.5C 184.5,131.5 184.5,129.5 184.5,127.5C 185.5,127.5 186.5,127.5 187.5,127.5C 187.577,123.854 188.577,120.521 190.5,117.5C 191.425,118.641 192.259,118.641 193,117.5C 194.128,115.655 194.628,113.655 194.5,111.5C 195.5,111.5 196.5,111.5 197.5,111.5C 194.184,120.42 191.017,129.42 188,138.5C 183.242,151.907 187.742,156.907 201.5,153.5C 202.659,149.199 203.659,144.866 204.5,140.5C 209.833,140.5 215.167,140.5 220.5,140.5C 220.756,143.598 221.422,146.598 222.5,149.5C 220.461,148.089 219.461,146.089 219.5,143.5C 215.5,143.5 211.5,143.5 207.5,143.5C 207.114,146.657 207.114,149.657 207.5,152.5C 206.675,155.246 205.175,156.246 203,155.5C 199.384,157.256 195.551,157.923 191.5,157.5C 191.5,159.5 191.5,161.5 191.5,163.5C 186.959,163.185 185.959,161.351 188.5,158C 187.338,157.173 186.171,156.34 185,155.5C 181.19,160 176.357,162.834 170.5,164C 167.28,166.751 163.614,168.251 159.5,168.5C 159.5,169.5 159.5,170.5 159.5,171.5C 164.722,170.236 170.055,169.569 175.5,169.5C 175.672,171.492 175.005,173.158 173.5,174.5C 175.123,175.476 176.457,174.976 177.5,173C 179.833,172.833 182.167,172.667 184.5,172.5C 187.287,172.574 189.787,173.24 192,174.5C 194.532,171.962 197.532,170.296 201,169.5C 202.167,169.667 203.333,169.833 204.5,170C 203.429,171.825 204.096,172.992 206.5,173.5C 207.167,172.5 207.833,171.5 208.5,170.5C 211.065,171.463 213.398,172.796 215.5,174.5C 217.535,172.628 219.702,170.961 222,169.5C 226.788,170.66 231.288,170.66 235.5,169.5C 236.524,170.853 237.857,171.52 239.5,171.5C 239.808,173.924 239.474,176.257 238.5,178.5C 237.859,177.007 236.859,176.007 235.5,175.5C 234.432,174.566 233.099,174.232 231.5,174.5C 231.5,179.833 231.5,185.167 231.5,190.5C 234.833,190.5 238.167,190.5 241.5,190.5C 236.167,191.833 230.833,191.833 225.5,190.5C 229.186,190.87 230.186,189.537 228.5,186.5C 229.765,185.486 230.431,183.986 230.5,182C 230.333,180.5 230.167,179 230,177.5C 228.625,179.937 228.125,182.603 228.5,185.5C 226.879,182.259 225.213,178.925 223.5,175.5C 221.994,174.253 220.494,174.253 219,175.5C 218.058,178.374 216.891,181.04 215.5,183.5C 214.167,183.5 212.833,183.5 211.5,183.5C 211.81,180.287 211.477,177.287 210.5,174.5C 209.5,174.5 208.5,174.5 207.5,174.5C 207.5,176.167 207.5,177.833 207.5,179.5C 205.743,178.708 204.409,177.375 203.5,175.5C 202.893,175.624 202.56,175.957 202.5,176.5C 200.858,174.919 198.858,174.253 196.5,174.5C 195.513,179.305 195.179,184.305 195.5,189.5C 194.778,189.082 194.278,188.416 194,187.5C 193.184,188.823 192.017,189.489 190.5,189.5C 195.43,179.612 192.43,174.778 181.5,175C 177.762,176.399 176.096,179.066 176.5,183C 176.308,186.965 177.975,189.799 181.5,191.5C 179.071,191.415 177.071,190.415 175.5,188.5C 174.859,189.993 173.859,190.993 172.5,191.5C 172.5,191.167 172.5,190.833 172.5,190.5C 172.5,185.167 172.5,179.833 172.5,174.5C 171.5,174.5 170.5,174.5 169.5,174.5C 168.511,179.975 168.178,185.642 168.5,191.5C 167.778,191.082 167.278,190.416 167,189.5C 166.502,186.183 166.335,182.85 166.5,179.5C 165.5,179.5 164.5,179.5 163.5,179.5C 163.665,182.85 163.498,186.183 163,189.5C 162.722,190.416 162.222,191.082 161.5,191.5C 161.5,191.167 161.5,190.833 161.5,190.5C 161.5,186.5 161.5,182.5 161.5,178.5C 163.167,178.5 164.833,178.5 166.5,178.5C 166.768,176.901 166.434,175.568 165.5,174.5C 160.968,174.182 156.634,174.515 152.5,175.5C 151.209,175.263 150.209,175.596 149.5,176.5C 147.831,174.338 145.831,174.005 143.5,175.5C 143.5,174.5 143.5,173.5 143.5,172.5C 146.119,172.232 148.619,172.565 151,173.5C 151.75,172.874 152.584,172.374 153.5,172C 150.428,171.422 147.761,170.255 145.5,168.5C 153.355,169.229 160.688,167.729 167.5,164C 161.811,163.627 156.145,163.127 150.5,162.5C 150.5,162.167 150.5,161.833 150.5,161.5C 157.769,162.114 164.769,161.28 171.5,159C 169.127,157.585 166.793,156.085 164.5,154.5C 163.294,150.928 162.627,147.262 162.5,143.5C 157.182,142.329 151.849,142.329 146.5,143.5C 146.5,142.5 146.5,141.5 146.5,140.5C 152.167,140.5 157.833,140.5 163.5,140.5C 163.648,153.104 169.982,157.77 182.5,154.5C 182.622,149.768 182.122,145.102 181,140.5C 177.843,128.206 174.843,115.873 172,103.5C 170.007,90.0775 162.507,85.7441 149.5,90.5C 145.439,98.3641 141.772,106.364 138.5,114.5C 138.337,112.143 138.503,109.81 139,107.5C 141.598,104.148 142.098,100.481 140.5,96.5C 143.229,95.9382 144.729,94.2715 145,91.5C 146.214,89.9512 147.714,88.7845 149.5,88C 155.5,87.6667 161.5,87.3333 167.5,87C 170.035,86.0718 171.035,84.2385 170.5,81.5C 174.427,80.4746 178.427,79.8079 182.5,79.5 Z"/></g>
<g><path style="opacity:1" fill="#1f355e" d="M 223.5,152.5 C 228.652,154.43 233.986,154.93 239.5,154C 240.423,151.959 240.756,149.792 240.5,147.5C 241.117,147.389 241.617,147.056 242,146.5C 242.368,147.91 243.201,148.91 244.5,149.5C 245.631,151.074 245.798,152.741 245,154.5C 244.667,154.167 244.333,153.833 244,153.5C 240.958,155.889 237.458,156.889 233.5,156.5C 230.145,156.276 226.812,155.943 223.5,155.5C 223.5,154.5 223.5,153.5 223.5,152.5 Z"/></g>
<g><path style="opacity:1" fill="#2c7580" d="M 131.5,153.5 C 135.4,154.43 139.4,154.763 143.5,154.5C 143.5,155.167 143.5,155.833 143.5,156.5C 140.167,156.5 136.833,156.5 133.5,156.5C 133.491,158.308 133.991,159.975 135,161.5C 136.72,162.384 137.886,163.717 138.5,165.5C 133.019,163.192 130.686,159.192 131.5,153.5 Z"/></g>
<g><path style="opacity:1" fill="#249b8c" d="M 143.5,156.5 C 143.5,157.5 143.5,158.5 143.5,159.5C 146.108,159.4 148.442,160.067 150.5,161.5C 150.5,161.833 150.5,162.167 150.5,162.5C 152.277,163.6 154.277,164.434 156.5,165C 155.114,166.603 153.281,167.437 151,167.5C 146.771,167.101 142.604,166.434 138.5,165.5C 137.886,163.717 136.72,162.384 135,161.5C 133.991,159.975 133.491,158.308 133.5,156.5C 136.833,156.5 140.167,156.5 143.5,156.5 Z"/></g>
<g><path style="opacity:1" fill="#298b91" d="M 150.5,162.5 C 156.145,163.127 161.811,163.627 167.5,164C 160.688,167.729 153.355,169.229 145.5,168.5C 142.922,168.02 140.588,167.02 138.5,165.5C 142.604,166.434 146.771,167.101 151,167.5C 153.281,167.437 155.114,166.603 156.5,165C 154.277,164.434 152.277,163.6 150.5,162.5 Z"/></g>
<g><path style="opacity:1" fill="#1e3464" d="M 140.5,183.5 C 136.24,191.284 138.073,192.617 146,187.5C 147.385,187.514 148.551,187.848 149.5,188.5C 148.167,188.5 146.833,188.5 145.5,188.5C 145.52,190.143 144.853,191.476 143.5,192.5C 122.167,193.833 100.833,193.833 79.5,192.5C 77.7189,188.374 77.0522,184.041 77.5,179.5C 76.5,179.5 75.5,179.5 74.5,179.5C 75.0894,183.971 74.4228,187.971 72.5,191.5C 72.5,185.833 72.5,180.167 72.5,174.5C 71.1667,174.5 69.8333,174.5 68.5,174.5C 68.6641,177.187 68.4974,179.854 68,182.5C 66.1667,180 64.3333,177.5 62.5,175C 60.8659,174.506 59.1992,174.34 57.5,174.5C 57.5,180.167 57.5,185.833 57.5,191.5C 56.1667,191.5 54.8333,191.5 53.5,191.5C 53.8222,185.642 53.4889,179.975 52.5,174.5C 51.5,174.5 50.5,174.5 49.5,174.5C 49.5,179.833 49.5,185.167 49.5,190.5C 49.5,190.833 49.5,191.167 49.5,191.5C 48.179,188.402 47.5123,184.902 47.5,181C 47.8333,177.5 48.1667,174 48.5,170.5C 54.2753,168.944 59.942,169.277 65.5,171.5C 69.0065,169.359 72.8398,168.026 77,167.5C 79.0197,168.032 79.853,169.365 79.5,171.5C 85.8262,171.874 91.9929,171.207 98,169.5C 106.778,169.905 115.778,170.238 125,170.5C 127.882,166.205 129.715,166.538 130.5,171.5C 129.127,171.343 127.793,171.51 126.5,172C 128.441,172.743 130.274,172.576 132,171.5C 134.069,172.264 136.236,172.764 138.5,173C 139.609,174.813 138.942,175.646 136.5,175.5C 136.5,178.167 136.5,180.833 136.5,183.5C 137.833,183.5 139.167,183.5 140.5,183.5 Z"/></g>
<g><path style="opacity:1" fill="#e5f3f8" d="M 100.5,184.5 C 98.5,184.5 96.5,184.5 94.5,184.5C 94.5,185.5 94.5,186.5 94.5,187.5C 96.8333,187.5 99.1667,187.5 101.5,187.5C 101.5,188.5 101.5,189.5 101.5,190.5C 97.8333,190.5 94.1667,190.5 90.5,190.5C 90.5,185.167 90.5,179.833 90.5,174.5C 94.1667,174.5 97.8333,174.5 101.5,174.5C 101.5,175.833 101.5,177.167 101.5,178.5C 99.076,178.192 96.7427,178.526 94.5,179.5C 96.396,180.466 98.396,180.799 100.5,180.5C 100.5,181.833 100.5,183.167 100.5,184.5 Z"/></g>
<g><path style="opacity:1" fill="#effbfe" d="M 169.5,174.5 C 170.5,174.5 171.5,174.5 172.5,174.5C 172.5,179.833 172.5,185.167 172.5,190.5C 171.5,190.5 170.5,190.5 169.5,190.5C 169.5,185.167 169.5,179.833 169.5,174.5 Z"/></g>
<g><path style="opacity:1" fill="#e8f2f5" d="M 228.5,185.5 C 228.5,185.833 228.5,186.167 228.5,186.5C 230.186,189.537 229.186,190.87 225.5,190.5C 225.672,189.508 225.338,188.842 224.5,188.5C 222.712,187.378 220.712,187.211 218.5,188C 217.383,189.892 215.716,190.725 213.5,190.5C 213.878,188.079 214.545,185.746 215.5,183.5C 216.891,181.04 218.058,178.374 219,175.5C 220.494,174.253 221.994,174.253 223.5,175.5C 225.213,178.925 226.879,182.259 228.5,185.5 Z"/></g>
<g><path style="opacity:1" fill="#97a8d0" d="M 165.5,174.5 C 166.434,175.568 166.768,176.901 166.5,178.5C 164.833,178.5 163.167,178.5 161.5,178.5C 162.568,177.566 163.901,177.232 165.5,177.5C 165.5,176.5 165.5,175.5 165.5,174.5 Z"/></g>
<g><path style="opacity:1" fill="#e2ecf4" d="M 190.5,189.5 C 187.785,191.123 184.785,191.79 181.5,191.5C 177.975,189.799 176.308,186.965 176.5,183C 176.096,179.066 177.762,176.399 181.5,175C 192.43,174.778 195.43,179.612 190.5,189.5 Z"/></g>
<g><path style="opacity:1" fill="#a7b5d0" d="M 210.5,174.5 C 211.477,177.287 211.81,180.287 211.5,183.5C 211.5,186.167 211.5,188.833 211.5,191.5C 209.585,191.784 207.919,191.451 206.5,190.5C 207.833,190.5 209.167,190.5 210.5,190.5C 210.5,185.167 210.5,179.833 210.5,174.5 Z"/></g>
<g><path style="opacity:1" fill="#f7f8fe" d="M 52.5,174.5 C 52.5,179.833 52.5,185.167 52.5,190.5C 51.5,190.5 50.5,190.5 49.5,190.5C 49.5,185.167 49.5,179.833 49.5,174.5C 50.5,174.5 51.5,174.5 52.5,174.5 Z"/></g>
<g><path style="opacity:1" fill="#a6b7cc" d="M 169.5,174.5 C 169.5,179.833 169.5,185.167 169.5,190.5C 170.5,190.5 171.5,190.5 172.5,190.5C 172.5,190.833 172.5,191.167 172.5,191.5C 171.167,191.5 169.833,191.5 168.5,191.5C 168.178,185.642 168.511,179.975 169.5,174.5 Z"/></g>
<g><path style="opacity:1" fill="#a3b3cd" d="M 157.5,178.5 C 158.483,182.298 158.817,186.298 158.5,190.5C 159.5,190.5 160.5,190.5 161.5,190.5C 161.5,190.833 161.5,191.167 161.5,191.5C 160.167,191.5 158.833,191.5 157.5,191.5C 157.5,187.167 157.5,182.833 157.5,178.5 Z"/></g>
<g><path style="opacity:1" fill="#acb6ce" d="M 52.5,174.5 C 53.4889,179.975 53.8222,185.642 53.5,191.5C 52.1667,191.5 50.8333,191.5 49.5,191.5C 49.5,191.167 49.5,190.833 49.5,190.5C 50.5,190.5 51.5,190.5 52.5,190.5C 52.5,185.167 52.5,179.833 52.5,174.5 Z"/></g>
<g><path style="opacity:1" fill="#1c3459" d="M 182.5,178.5 C 188.643,179.026 189.976,181.86 186.5,187C 181.504,187.664 179.67,185.498 181,180.5C 181.717,179.956 182.217,179.289 182.5,178.5 Z"/></g>
<g><path style="opacity:1" fill="#acb0cb" d="M 196.5,174.5 C 196.5,179.833 196.5,185.167 196.5,190.5C 197.5,190.5 198.5,190.5 199.5,190.5C 199.083,191.124 198.416,191.457 197.5,191.5C 196.287,191.253 195.62,190.586 195.5,189.5C 195.179,184.305 195.513,179.305 196.5,174.5 Z"/></g>
<g><path style="opacity:1" fill="#4f504e" d="M 220.5,181.5 C 222.465,181.948 222.798,182.948 221.5,184.5C 220.614,183.675 220.281,182.675 220.5,181.5 Z"/></g>
<g><path style="opacity:1" fill="#172575" d="M 228.5,186.5 C 228.5,186.167 228.5,185.833 228.5,185.5C 228.125,182.603 228.625,179.937 230,177.5C 230.167,179 230.333,180.5 230.5,182C 230.431,183.986 229.765,185.486 228.5,186.5 Z"/></g>
<g><path style="opacity:1" fill="#f0f6f6" d="M 120.5,174.5 C 122.199,174.34 123.866,174.506 125.5,175C 127.703,177.701 129.703,180.534 131.5,183.5C 132.484,180.572 132.817,177.572 132.5,174.5C 133.5,174.5 134.5,174.5 135.5,174.5C 135.5,179.833 135.5,185.167 135.5,190.5C 134.127,190.657 132.793,190.49 131.5,190C 128.963,187.094 126.796,183.927 125,180.5C 124.502,183.817 124.335,187.15 124.5,190.5C 123.167,190.5 121.833,190.5 120.5,190.5C 120.5,185.167 120.5,179.833 120.5,174.5 Z"/></g>
<g><path style="opacity:1" fill="#e5ebf2" d="M 72.5,191.5 C 70.4458,191.635 68.7791,190.968 67.5,189.5C 62.1299,178.244 60.1299,178.911 61.5,191.5C 60.1667,191.5 58.8333,191.5 57.5,191.5C 57.5,185.833 57.5,180.167 57.5,174.5C 59.1992,174.34 60.8659,174.506 62.5,175C 64.3333,177.5 66.1667,180 68,182.5C 68.4974,179.854 68.6641,177.187 68.5,174.5C 69.8333,174.5 71.1667,174.5 72.5,174.5C 72.5,180.167 72.5,185.833 72.5,191.5 Z"/></g>
<g><path style="opacity:1" fill="#e6f3f5" d="M 74.5,174.5 C 79.1667,174.5 83.8333,174.5 88.5,174.5C 88.5,175.833 88.5,177.167 88.5,178.5C 86.8333,178.5 85.1667,178.5 83.5,178.5C 83.5,182.5 83.5,186.5 83.5,190.5C 82.1667,190.5 80.8333,190.5 79.5,190.5C 79.5,186.5 79.5,182.5 79.5,178.5C 77.8333,178.5 76.1667,178.5 74.5,178.5C 74.5,177.167 74.5,175.833 74.5,174.5 Z"/></g>
<g><path style="opacity:1" fill="#2b3942" d="M 100.5,184.5 C 100.557,185.609 100.89,186.609 101.5,187.5C 99.1667,187.5 96.8333,187.5 94.5,187.5C 94.5,186.5 94.5,185.5 94.5,184.5C 96.5,184.5 98.5,184.5 100.5,184.5 Z"/></g>
<g><path style="opacity:1" fill="#e7f1f4" d="M 149.5,176.5 C 150.969,181.574 152.636,186.574 154.5,191.5C 152.067,191.727 150.401,190.727 149.5,188.5C 148.551,187.848 147.385,187.514 146,187.5C 138.073,192.617 136.24,191.284 140.5,183.5C 141.892,180.993 142.892,178.327 143.5,175.5C 145.831,174.005 147.831,174.338 149.5,176.5 Z"/></g>
<g><path style="opacity:1" fill="#5c5652" d="M 145.5,181.5 C 147.625,182.368 147.791,183.368 146,184.5C 144.317,183.824 144.15,182.824 145.5,181.5 Z"/></g>
<g><path style="opacity:1" fill="#f4f5f9" d="M 196.5,174.5 C 198.858,174.253 200.858,174.919 202.5,176.5C 203.777,178.95 205.277,181.283 207,183.5C 207.49,182.207 207.657,180.873 207.5,179.5C 207.5,177.833 207.5,176.167 207.5,174.5C 208.5,174.5 209.5,174.5 210.5,174.5C 210.5,179.833 210.5,185.167 210.5,190.5C 209.167,190.5 207.833,190.5 206.5,190.5C 204.593,187.025 202.426,183.691 200,180.5C 199.502,183.817 199.335,187.15 199.5,190.5C 198.5,190.5 197.5,190.5 196.5,190.5C 196.5,185.167 196.5,179.833 196.5,174.5 Z"/></g>
<g><path style="opacity:1" fill="#383f50" d="M 207.5,179.5 C 207.657,180.873 207.49,182.207 207,183.5C 205.277,181.283 203.777,178.95 202.5,176.5C 202.56,175.957 202.893,175.624 203.5,175.5C 204.409,177.375 205.743,178.708 207.5,179.5 Z"/></g>
<g><path style="opacity:1" fill="#e6f5f8" d="M 165.5,174.5 C 165.5,175.5 165.5,176.5 165.5,177.5C 163.901,177.232 162.568,177.566 161.5,178.5C 161.5,182.5 161.5,186.5 161.5,190.5C 160.5,190.5 159.5,190.5 158.5,190.5C 158.817,186.298 158.483,182.298 157.5,178.5C 155.833,178.5 154.167,178.5 152.5,178.5C 152.5,177.5 152.5,176.5 152.5,175.5C 156.634,174.515 160.968,174.182 165.5,174.5 Z"/></g>
<g><path style="opacity:1" fill="#edf5f7" d="M 104.5,174.5 C 107.518,174.335 110.518,174.502 113.5,175C 117,178.004 117.333,181.337 114.5,185C 115.376,186.586 116.376,188.086 117.5,189.5C 116.277,190.614 114.944,190.781 113.5,190C 112.491,187.828 110.824,186.662 108.5,186.5C 108.5,187.833 108.5,189.167 108.5,190.5C 107.167,190.5 105.833,190.5 104.5,190.5C 104.5,185.167 104.5,179.833 104.5,174.5 Z"/></g>
<g><path style="opacity:1" fill="#303449" d="M 108.5,178.5 C 110.346,178.222 111.68,178.889 112.5,180.5C 111.68,182.111 110.346,182.778 108.5,182.5C 108.5,181.167 108.5,179.833 108.5,178.5 Z"/></g>
<g><path style="opacity:1" fill="#f1fcf9" d="M 235.5,175.5 C 235.5,179.5 235.5,183.5 235.5,187.5C 237.5,187.5 239.5,187.5 241.5,187.5C 241.5,188.5 241.5,189.5 241.5,190.5C 238.167,190.5 234.833,190.5 231.5,190.5C 231.5,185.167 231.5,179.833 231.5,174.5C 233.099,174.232 234.432,174.566 235.5,175.5 Z"/></g>
<g><path style="opacity:1" fill="#1d3258" d="M 67.5,189.5 C 65.6854,190.63 63.6854,191.296 61.5,191.5C 60.1299,178.911 62.1299,178.244 67.5,189.5 Z"/></g>
<g><path style="opacity:1" fill="#31455f" d="M 211.5,183.5 C 212.833,183.5 214.167,183.5 215.5,183.5C 214.545,185.746 213.878,188.079 213.5,190.5C 215.716,190.725 217.383,189.892 218.5,188C 220.712,187.211 222.712,187.378 224.5,188.5C 220.573,190.563 216.239,191.563 211.5,191.5C 211.5,188.833 211.5,186.167 211.5,183.5 Z"/></g>
<g><path style="opacity:1" fill="#203764" d="M 219.5,210.5 C 219.918,209.778 220.584,209.278 221.5,209C 218.162,208.124 216.829,208.291 217.5,209.5C 217.027,215.638 213.694,218.638 207.5,218.5C 207.5,217.167 207.5,215.833 207.5,214.5C 206.833,214.5 206.167,214.5 205.5,214.5C 201.029,214.328 200.696,213.494 204.5,212C 200.735,210.623 201.068,209.623 205.5,209C 203.866,208.506 202.199,208.34 200.5,208.5C 200.5,210.833 200.5,213.167 200.5,215.5C 201.833,215.5 203.167,215.5 204.5,215.5C 203.081,216.451 201.415,216.784 199.5,216.5C 199.762,215.022 199.429,213.689 198.5,212.5C 198.984,213.781 198.317,214.781 196.5,215.5C 196.5,213.167 196.5,210.833 196.5,208.5C 194.833,208.5 193.167,208.5 191.5,208.5C 191.5,210.833 191.5,213.167 191.5,215.5C 189.518,213.403 188.518,210.736 188.5,207.5C 187.167,207.5 185.833,207.5 184.5,207.5C 184.337,209.857 184.503,212.19 185,214.5C 187.907,216.733 189.074,219.733 188.5,223.5C 187.167,223.5 185.833,223.5 184.5,223.5C 184.348,219.513 182.348,218.013 178.5,219C 176.442,222.201 175.442,221.701 175.5,217.5C 171.494,216.992 167.827,215.659 164.5,213.5C 164.227,211.549 164.893,210.049 166.5,209C 164.5,208.333 162.5,208.333 160.5,209C 162.192,210.401 162.859,212.234 162.5,214.5C 161.5,214.5 160.5,214.5 159.5,214.5C 159.5,212.167 159.5,209.833 159.5,207.5C 167.548,207.494 175.548,206.828 183.5,205.5C 196.783,207.163 210.116,207.83 223.5,207.5C 223.87,211.186 222.537,212.186 219.5,210.5 Z"/></g>
<g><path style="opacity:1" fill="#e0f2fd" d="M 178.5,208.5 C 184.324,208.347 184.657,209.013 179.5,210.5C 180.729,211.281 182.062,211.781 183.5,212C 178.167,213 178.167,214 183.5,215C 181.866,215.494 180.199,215.66 178.5,215.5C 178.5,213.167 178.5,210.833 178.5,208.5 Z"/></g>
<g><path style="opacity:1" fill="#bfcfe6" d="M 207.5,214.5 C 208.648,213.836 209.981,213.669 211.5,214C 209.939,213.059 208.605,211.892 207.5,210.5C 209.263,208.064 211.263,207.897 213.5,210C 209.81,210.424 209.643,211.258 213,212.5C 213.483,213.448 213.649,214.448 213.5,215.5C 211.379,215.675 209.379,215.341 207.5,214.5 Z"/></g>
<g><path style="opacity:1" fill="#dcf4fd" d="M 219.5,210.5 C 219.66,212.199 219.494,213.866 219,215.5C 218.809,213.292 218.309,211.292 217.5,209.5C 216.829,208.291 218.162,208.124 221.5,209C 220.584,209.278 219.918,209.778 219.5,210.5 Z"/></g>
<g><path style="opacity:1" fill="#b9d2f7" d="M 164.5,213.5 C 164.289,215.424 163.623,215.757 162.5,214.5C 162.859,212.234 162.192,210.401 160.5,209C 162.5,208.333 164.5,208.333 166.5,209C 164.893,210.049 164.227,211.549 164.5,213.5 Z"/></g>
<g><path style="opacity:1" fill="#dbeafa" d="M 205.5,214.5 C 205.5,215.167 205.167,215.5 204.5,215.5C 203.167,215.5 201.833,215.5 200.5,215.5C 200.5,213.167 200.5,210.833 200.5,208.5C 202.199,208.34 203.866,208.506 205.5,209C 201.068,209.623 200.735,210.623 204.5,212C 200.696,213.494 201.029,214.328 205.5,214.5 Z"/></g>
<g><path style="opacity:1" fill="#dff7ff" d="M 169.5,208.5 C 170.404,209.209 170.737,210.209 170.5,211.5C 171.5,211.5 172.5,211.5 173.5,211.5C 174.833,211.833 174.833,212.167 173.5,212.5C 172.5,212.5 171.5,212.5 170.5,212.5C 170.649,213.552 170.483,214.552 170,215.5C 169.503,213.19 169.337,210.857 169.5,208.5 Z"/></g>
<g><path style="opacity:1" fill="#d6e3f1" d="M 196.5,215.5 C 194.833,215.5 193.167,215.5 191.5,215.5C 191.5,213.167 191.5,210.833 191.5,208.5C 193.167,208.5 194.833,208.5 196.5,208.5C 196.5,210.833 196.5,213.167 196.5,215.5 Z"/></g>
<g><path style="opacity:1" fill="#374356" d="M 192.5,209.5 C 194.337,209.639 194.67,210.306 193.5,211.5C 192.702,211.043 192.369,210.376 192.5,209.5 Z"/></g>
<g><path style="opacity:1" fill="#242c42" d="M 192.5,212.5 C 194.337,212.639 194.67,213.306 193.5,214.5C 192.702,214.043 192.369,213.376 192.5,212.5 Z"/></g>
<g><path style="opacity:1" fill="#163266" d="M 118.5,215.5 C 118.369,214.761 118.536,214.094 119,213.5C 119.689,214.357 120.522,215.023 121.5,215.5C 122.647,213.235 122.814,210.902 122,208.5C 121.667,209.833 121.333,211.167 121,212.5C 117.323,207.404 115.823,208.404 116.5,215.5C 115.711,215.783 115.044,216.283 114.5,217C 99.3449,217.467 84.3449,217.467 69.5,217C 68.0506,215.883 66.3839,215.216 64.5,215C 63.4018,212.502 63.5684,210.002 65,207.5C 65.3076,208.308 65.8076,208.975 66.5,209.5C 67.6956,209.154 67.6956,208.654 66.5,208C 67.0944,207.536 67.7611,207.369 68.5,207.5C 68.2053,209.735 68.5386,211.735 69.5,213.5C 69.3284,214.492 69.6618,215.158 70.5,215.5C 70.8333,215.5 71.1667,215.5 71.5,215.5C 73.1667,215.5 74.8333,215.5 76.5,215.5C 78.9973,214.662 81.3307,214.328 83.5,214.5C 83.8417,213.662 84.5084,213.328 85.5,213.5C 86.1342,214.947 87.3009,215.613 89,215.5C 90.0698,215.472 90.9032,215.139 91.5,214.5C 92.391,215.11 93.391,215.443 94.5,215.5C 94.8333,215.5 95.1667,215.5 95.5,215.5C 96.8333,216.833 98.1667,216.833 99.5,215.5C 102.116,216.052 104.783,216.386 107.5,216.5C 109.952,216.461 111.952,215.794 113.5,214.5C 113.5,214.167 113.5,213.833 113.5,213.5C 115.008,211.829 115.341,209.996 114.5,208C 102.838,207.5 91.1714,207.333 79.5,207.5C 89.8118,206.168 100.478,205.501 111.5,205.5C 122.167,205.833 132.833,206.167 143.5,206.5C 147.5,207.167 151.5,207.833 155.5,208.5C 156.022,209.607 156.355,210.774 156.5,212C 155.622,213.8 154.955,215.633 154.5,217.5C 150.802,217.448 147.135,217.114 143.5,216.5C 143.785,218.288 143.452,219.955 142.5,221.5C 137.934,218.773 132.934,217.773 127.5,218.5C 127.5,217.5 127.5,216.5 127.5,215.5C 125.323,215.586 123.323,216.253 121.5,217.5C 120.261,217.058 119.261,216.391 118.5,215.5 Z"/></g>
<g><path style="opacity:1" fill="#d2e7f7" d="M 113.5,213.5 C 113.5,213.833 113.5,214.167 113.5,214.5C 111.621,215.341 109.621,215.675 107.5,215.5C 107.244,213.208 107.577,211.041 108.5,209C 112.492,207.823 114.158,209.323 113.5,213.5 Z"/></g>
<g><path style="opacity:1" fill="#8692b4" d="M 74.5,212.5 C 73.0998,213.1 72.0998,214.1 71.5,215.5C 71.1667,215.5 70.8333,215.5 70.5,215.5C 70.5,213.5 70.5,211.5 70.5,209.5C 72.7067,210.001 74.0401,211.001 74.5,212.5 Z"/></g>
<g><path style="opacity:1" fill="#c1cde9" d="M 118.5,215.5 C 117.833,215.5 117.167,215.5 116.5,215.5C 115.823,208.404 117.323,207.404 121,212.5C 121.333,211.167 121.667,209.833 122,208.5C 122.814,210.902 122.647,213.235 121.5,215.5C 120.522,215.023 119.689,214.357 119,213.5C 118.536,214.094 118.369,214.761 118.5,215.5 Z"/></g>
<g><path style="opacity:1" fill="#24385c" d="M 68.5,207.5 C 72.1667,207.5 75.8333,207.5 79.5,207.5C 91.1714,207.333 102.838,207.5 114.5,208C 115.341,209.996 115.008,211.829 113.5,213.5C 114.158,209.323 112.492,207.823 108.5,209C 107.577,211.041 107.244,213.208 107.5,215.5C 109.621,215.675 111.621,215.341 113.5,214.5C 111.952,215.794 109.952,216.461 107.5,216.5C 104.783,216.386 102.116,216.052 99.5,215.5C 98.1667,216.833 96.8333,216.833 95.5,215.5C 96.4782,214.703 96.1449,214.036 94.5,213.5C 93.537,213.97 93.537,214.637 94.5,215.5C 93.391,215.443 92.391,215.11 91.5,214.5C 91.1028,212.338 89.7695,211.005 87.5,210.5C 88.7161,209.904 90.0494,209.737 91.5,210C 89.2631,207.897 87.2631,208.064 85.5,210.5C 86.6053,211.892 87.9386,213.059 89.5,214C 88.1807,214.195 86.8474,214.028 85.5,213.5C 84.5084,213.328 83.8417,213.662 83.5,214.5C 82.2616,212.786 81.595,210.786 81.5,208.5C 80.5,208.5 79.5,208.5 78.5,208.5C 78.233,210.965 77.5664,213.299 76.5,215.5C 74.8333,215.5 73.1667,215.5 71.5,215.5C 72.0998,214.1 73.0998,213.1 74.5,212.5C 75.7911,211.458 75.7911,210.292 74.5,209C 72.8659,208.506 71.1992,208.34 69.5,208.5C 69.5,210.167 69.5,211.833 69.5,213.5C 68.5386,211.735 68.2053,209.735 68.5,207.5 Z"/></g>
<g><path style="opacity:1" fill="#ddecfb" d="M 95.5,215.5 C 95.1667,215.5 94.8333,215.5 94.5,215.5C 93.537,214.637 93.537,213.97 94.5,213.5C 96.1449,214.036 96.4782,214.703 95.5,215.5 Z"/></g>
<g><path style="opacity:1" fill="#93acc9" d="M 102.5,208.5 C 103.725,209.152 104.392,210.319 104.5,212C 104.167,213.167 103.833,214.333 103.5,215.5C 102.526,213.257 102.192,210.924 102.5,208.5 Z"/></g>
<g><path style="opacity:1" fill="#d8e4f3" d="M 99.5,215.5 C 98.7611,215.631 98.0944,215.464 97.5,215C 98.8333,214.333 98.8333,213.667 97.5,213C 96.552,212.517 95.552,212.351 94.5,212.5C 94.5,211.167 94.5,209.833 94.5,208.5C 96.4286,208.231 98.0953,208.731 99.5,210C 95.8927,209.408 95.726,210.241 99,212.5C 99.4828,213.448 99.6495,214.448 99.5,215.5 Z"/></g>
<g><path style="opacity:1" fill="#bed0e8" d="M 83.5,214.5 C 81.3307,214.328 78.9973,214.662 76.5,215.5C 77.5664,213.299 78.233,210.965 78.5,208.5C 79.5,208.5 80.5,208.5 81.5,208.5C 81.595,210.786 82.2616,212.786 83.5,214.5 Z"/></g>
<g><path style="opacity:1" fill="#c0cfe9" d="M 147.5,208.5 C 153.067,207.753 154.9,210.087 153,215.5C 151.62,212.942 150.12,212.942 148.5,215.5C 147.526,213.257 147.192,210.924 147.5,208.5 Z"/></g>
<g><path style="opacity:1" fill="#37435e" d="M 149.5,209.5 C 151.337,209.639 151.67,210.306 150.5,211.5C 149.702,211.043 149.369,210.376 149.5,209.5 Z"/></g>
<g><path style="opacity:1" fill="#2a3755" d="M 109.5,209.5 C 112.956,210.536 113.29,212.203 110.5,214.5C 108.296,213.218 107.962,211.551 109.5,209.5 Z"/></g>
<g><path style="opacity:1" fill="#deedfb" d="M 74.5,212.5 C 74.0401,211.001 72.7067,210.001 70.5,209.5C 70.5,211.5 70.5,213.5 70.5,215.5C 69.6618,215.158 69.3284,214.492 69.5,213.5C 69.5,211.833 69.5,210.167 69.5,208.5C 71.1992,208.34 72.8659,208.506 74.5,209C 75.7911,210.292 75.7911,211.458 74.5,212.5 Z"/></g>
<g><path style="opacity:1" fill="#c9dff3" d="M 139.5,208.5 C 144.328,208.385 145.661,210.552 143.5,215C 137.681,215.526 136.348,213.359 139.5,208.5 Z"/></g>
<g><path style="opacity:1" fill="#223759" d="M 140.5,209.5 C 143.389,209.999 144.056,211.499 142.5,214C 141.552,214.483 140.552,214.649 139.5,214.5C 139.366,212.708 139.699,211.042 140.5,209.5 Z"/></g>
<g><path style="opacity:1" fill="#c4d6eb" d="M 91.5,214.5 C 90.9032,215.139 90.0698,215.472 89,215.5C 87.3009,215.613 86.1342,214.947 85.5,213.5C 86.8474,214.028 88.1807,214.195 89.5,214C 87.9386,213.059 86.6053,211.892 85.5,210.5C 87.2631,208.064 89.2631,207.897 91.5,210C 90.0494,209.737 88.7161,209.904 87.5,210.5C 89.7695,211.005 91.1028,212.338 91.5,214.5 Z"/></g>
<g><path style="opacity:1" fill="#daf4fd" d="M 130.5,208.5 C 136.324,208.347 136.657,209.013 131.5,210.5C 136.682,211.776 136.682,212.443 131.5,212.5C 131.649,213.552 131.483,214.552 131,215.5C 130.503,213.19 130.337,210.857 130.5,208.5 Z"/></g>
</svg>
