<?xml version="1.0" encoding="iso-8859-1"?>
<!-- Generator: Adobe Illustrator 16.0.0, SVG Export Plug-In . SVG Version: 6.00 Build 0)  -->
<!DOCTYPE svg PUBLIC "-//W3C//DTD SVG 1.1//EN" "http://www.w3.org/Graphics/SVG/1.1/DTD/svg11.dtd">
<svg version="1.1" id="Layer_1" xmlns="http://www.w3.org/2000/svg" xmlns:xlink="http://www.w3.org/1999/xlink" x="0px" y="0px"
	 width="340.16px" height="340.32px" viewBox="0 0 340.16 340.32" style="enable-background:new 0 0 340.16 340.32;"
	 xml:space="preserve">
<path style="fill:#2A8274;" d="M302.566,103.529c9.666,45.376-0.343,95.895-69.16,117.812c6.449-4.271,38.268-33.984,14.248-48.843
	c-0.735,0.926-1.465,2.031-2.168,3.346c-23.233,43.378-98.257,37.367-55.287,131.792C233.724,256.084,354.56,214.5,302.566,103.529z
	"/>
<path style="fill:#2A8274;" d="M41.592,103.529c-9.664,45.376,0.345,95.895,69.164,117.812c-6.45-4.271-38.269-33.984-14.249-48.843
	c0.737,0.926,1.466,2.031,2.168,3.346c23.233,43.378,98.255,37.367,55.285,131.792C110.438,256.084-10.398,214.5,41.592,103.529z"/>
<path style="fill:#2A8274;" d="M167.975,62.285c-17.074-21.393-38.588-29.272-63.742-16.491
	C86.646,54.726,81.271,70.45,79.312,79.963c-9.788,47.547,40.61,100.712,88.663,120.671c48.053-19.959,98.449-73.125,88.661-120.671
	c-1.959-9.513-7.332-25.238-24.92-34.169C206.562,33.012,185.048,40.892,167.975,62.285z"/>
<path style="fill:#FFFFFF;" d="M214.479,114.86v10.549c0,5.536-4.531,10.068-10.067,10.068h-21.097v21.097
	c0,5.535-4.528,10.067-10.067,10.067H162.7c-5.539,0-10.067-4.532-10.067-10.067v-21.097h-21.098
	c-5.538,0-10.067-4.532-10.067-10.068V114.86c0-5.536,4.529-10.068,10.067-10.068h21.098V83.697c0-5.538,4.528-10.067,10.067-10.067
	h10.547c5.539,0,10.067,4.53,10.067,10.067v21.094h21.097C209.947,104.792,214.479,109.324,214.479,114.86z"/>
</svg>
