<?xml version="1.0" encoding="UTF-8"?>
<svg id="SLIDE_3" data-name="SLIDE 3" xmlns="http://www.w3.org/2000/svg" xmlns:xlink="http://www.w3.org/1999/xlink" viewBox="0 0 269 300">
  <defs>
    <style>
      .cls-1 {
        fill: url(#linear-gradient-38);
      }

      .cls-1, .cls-2, .cls-3, .cls-4, .cls-5, .cls-6, .cls-7, .cls-8, .cls-9, .cls-10, .cls-11, .cls-12, .cls-13, .cls-14, .cls-15, .cls-16, .cls-17, .cls-18, .cls-19, .cls-20, .cls-21, .cls-22, .cls-23, .cls-24, .cls-25, .cls-26, .cls-27, .cls-28, .cls-29, .cls-30, .cls-31, .cls-32, .cls-33, .cls-34, .cls-35, .cls-36, .cls-37, .cls-38, .cls-39, .cls-40, .cls-41, .cls-42, .cls-43, .cls-44, .cls-45, .cls-46, .cls-47, .cls-48, .cls-49, .cls-50, .cls-51, .cls-52, .cls-53, .cls-54 {
        stroke-width: 0px;
      }

      .cls-2 {
        fill: url(#linear-gradient-17);
      }

      .cls-3 {
        fill: url(#linear-gradient-19);
      }

      .cls-4 {
        fill: url(#linear-gradient);
      }

      .cls-5 {
        fill: url(#linear-gradient-12);
      }

      .cls-5, .cls-19, .cls-46 {
        opacity: .25;
      }

      .cls-6 {
        opacity: .56;
      }

      .cls-6, .cls-42 {
        fill: #fff;
      }

      .cls-7 {
        fill: url(#linear-gradient-21);
      }

      .cls-8 {
        fill: url(#linear-gradient-6);
      }

      .cls-9 {
        fill: url(#linear-gradient-16);
      }

      .cls-9, .cls-17 {
        opacity: .61;
      }

      .cls-10 {
        fill: url(#linear-gradient-15);
      }

      .cls-11 {
        fill: url(#linear-gradient-11);
      }

      .cls-12 {
        fill: url(#Dégradé_sans_nom_26);
      }

      .cls-13 {
        fill: url(#Dégradé_sans_nom_38);
      }

      .cls-14 {
        fill: url(#linear-gradient-5);
      }

      .cls-15 {
        fill: url(#_3);
      }

      .cls-16 {
        fill: url(#linear-gradient-31);
      }

      .cls-17 {
        fill: url(#linear-gradient-18);
      }

      .cls-18 {
        fill: url(#linear-gradient-34);
      }

      .cls-19 {
        fill: url(#linear-gradient-14);
      }

      .cls-20 {
        fill: url(#linear-gradient-13);
      }

      .cls-21 {
        fill: url(#linear-gradient-23);
      }

      .cls-22 {
        fill: url(#linear-gradient-25);
      }

      .cls-23 {
        fill: url(#linear-gradient-22);
      }

      .cls-24 {
        fill: url(#linear-gradient-35);
      }

      .cls-25 {
        fill: url(#linear-gradient-32);
      }

      .cls-26 {
        fill: url(#linear-gradient-20);
      }

      .cls-27 {
        fill: url(#linear-gradient-2);
      }

      .cls-28 {
        fill: url(#Dégradé_sans_nom_18);
      }

      .cls-29 {
        fill: url(#linear-gradient-7);
      }

      .cls-30 {
        fill: url(#linear-gradient-3);
      }

      .cls-31 {
        fill: url(#linear-gradient-9);
      }

      .cls-32 {
        fill: url(#linear-gradient-27);
      }

      .cls-33 {
        fill: #112f6d;
      }

      .cls-34 {
        fill: url(#Dégradé_sans_nom_35);
      }

      .cls-35 {
        fill: url(#Dégradé_sans_nom_10);
      }

      .cls-36 {
        fill: #0f9d87;
      }

      .cls-37 {
        fill: url(#linear-gradient-36);
      }

      .cls-38 {
        fill: url(#linear-gradient-8);
      }

      .cls-39 {
        fill: url(#linear-gradient-24);
      }

      .cls-40 {
        fill: url(#linear-gradient-26);
      }

      .cls-41 {
        fill: url(#linear-gradient-30);
      }

      .cls-43 {
        fill: url(#linear-gradient-29);
      }

      .cls-44 {
        fill: #deefed;
      }

      .cls-45 {
        fill: #56bba9;
      }

      .cls-46 {
        fill: url(#linear-gradient-33);
      }

      .cls-47 {
        fill: url(#linear-gradient-28);
      }

      .cls-48 {
        fill: url(#linear-gradient-10);
      }

      .cls-49 {
        fill: url(#Dégradé_sans_nom_22);
      }

      .cls-50 {
        fill: url(#Dégradé_sans_nom_14);
      }

      .cls-51 {
        fill: url(#linear-gradient-4);
      }

      .cls-52 {
        fill: url(#linear-gradient-37);
      }

      .cls-53 {
        fill: url(#Dégradé_sans_nom_31);
      }

      .cls-54 {
        fill: url(#Dégradé_sans_nom_6);
      }
    </style>
    <linearGradient id="linear-gradient" x1="-32.23" y1="377.84" x2="-30.6" y2="403.06" gradientTransform="translate(-181.09 -188.81) rotate(-42)" gradientUnits="userSpaceOnUse">
      <stop offset="0" stop-color="#6cc9f0"/>
      <stop offset="1" stop-color="#3c519f"/>
    </linearGradient>
    <linearGradient id="linear-gradient-2" x1="63.76" y1="139.7" x2="25.64" y2="79.5" gradientTransform="matrix(1,0,0,1,0,0)" xlink:href="#linear-gradient"/>
    <linearGradient id="linear-gradient-3" x1="61.1" y1="118.58" x2="61.1" y2="153.49" gradientTransform="matrix(1,0,0,1,0,0)" xlink:href="#linear-gradient"/>
    <linearGradient id="linear-gradient-4" x1="-33.44" y1="404.52" x2="-32.45" y2="383.17" gradientTransform="translate(88.03 -266.98)" xlink:href="#linear-gradient"/>
    <linearGradient id="linear-gradient-5" x1="-39.44" y1="511.16" x2="-31.93" y2="350.18" gradientTransform="translate(94.16 -268.29) rotate(-.02)" xlink:href="#linear-gradient"/>
    <linearGradient id="linear-gradient-6" x1="-36.43" y1="511.16" x2="-28.92" y2="350.18" gradientTransform="translate(93.56 -270.29)" xlink:href="#linear-gradient"/>
    <linearGradient id="linear-gradient-7" x1="5080.08" y1="361.38" x2="5096.97" y2="340.21" gradientTransform="translate(4342.05 -2634.88) rotate(151.2) scale(1 -1)" gradientUnits="userSpaceOnUse">
      <stop offset="0" stop-color="#2a3780"/>
      <stop offset="1" stop-color="#201d3f"/>
    </linearGradient>
    <linearGradient id="linear-gradient-8" x1="1996.15" y1="2284.79" x2="2004.25" y2="2304.33" gradientTransform="translate(3099.79 10.17) rotate(-132.99) scale(1 -1)" xlink:href="#linear-gradient-7"/>
    <linearGradient id="linear-gradient-9" x1="2002.52" y1="2305.13" x2="2008.34" y2="2324.4" gradientTransform="translate(3099.79 10.17) rotate(-132.99) scale(1 -1)" xlink:href="#linear-gradient-7"/>
    <linearGradient id="linear-gradient-10" x1="1998.06" y1="1737.08" x2="2003.88" y2="1756.34" gradientTransform="translate(2985.64 116.59) rotate(-132.99) scale(1 -1.24)" xlink:href="#linear-gradient-7"/>
    <linearGradient id="Dégradé_sans_nom_6" x1="-4423.24" y1="115.14" x2="-4451.98" y2="363.74" gradientTransform="translate(4566.6)" gradientUnits="userSpaceOnUse">
      <stop offset="0" stop-color="#0f9d87"/>
      <stop offset="1" stop-color="#112f6d"/>
    </linearGradient>
    <linearGradient id="Dégradé_sans_nom_35"  x1="47.3" y1="68.03" x2="29.68" y2="312.08" gradientUnits="userSpaceOnUse">
      <stop offset="0" stop-color="#0f9d87"/>
      <stop offset="1" stop-color="#112f6d"/>
    </linearGradient>
    <linearGradient id="Dégradé_sans_nom_26"  x1="262.24" y1="158.42" x2="194.4" y2="276.48" gradientUnits="userSpaceOnUse">
      <stop offset="0" stop-color="#0f9d87"/>
      <stop offset="1" stop-color="#112f6d"/>
    </linearGradient>
    <linearGradient id="linear-gradient-11" x1="-4505.67" y1="-376.08" x2="-4544.75" y2="-285.88" gradientTransform="translate(4622.03 348.52) rotate(-2.1)" xlink:href="#linear-gradient-7"/>
    <linearGradient id="linear-gradient-12" x1="-4423.85" y1="-644.84" x2="-4467.02" y2="-517.11" gradientTransform="translate(4623.27 348.6) rotate(-2.1)" gradientUnits="userSpaceOnUse">
      <stop offset="0" stop-color="#6db0e2"/>
      <stop offset="1" stop-color="#3d64ad"/>
    </linearGradient>
    <linearGradient id="linear-gradient-13" x1="-4455.59" y1="-354.71" x2="-4494.69" y2="-264.48" gradientTransform="translate(4623.27 348.6) rotate(-2.1)" xlink:href="#linear-gradient-7"/>
    <linearGradient id="linear-gradient-14" x1="-4382.16" y1="-630.75" x2="-4425.32" y2="-503.02" xlink:href="#linear-gradient-12"/>
    <linearGradient id="Dégradé_sans_nom_38"  x1="259.22" y1="133.78" x2="219.16" y2="231.07" gradientUnits="userSpaceOnUse">
      <stop offset="0" stop-color="#0f9d87"/>
      <stop offset="1" stop-color="#112f6d"/>
    </linearGradient>
    <linearGradient id="Dégradé_sans_nom_22"  x1="75.1" y1="174.69" x2="75.3" y2="261.75" gradientUnits="userSpaceOnUse">
      <stop offset="0" stop-color="#112f6d"/>
      <stop offset="1" stop-color="#0f9d87"/>
    </linearGradient>
    <linearGradient id="linear-gradient-15" x1="57.1" y1="237.12" x2="93.05" y2="237.12" gradientTransform="matrix(1,0,0,1,0,0)" xlink:href="#linear-gradient-7"/>
    <linearGradient id="linear-gradient-16" x1="116.43" y1="97.48" x2="52.95" y2="311.84" gradientTransform="translate(13.23 -3.79) rotate(3.17)" xlink:href="#linear-gradient"/>
    <linearGradient id="Dégradé_sans_nom_31"  x1="183.31" y1="175.67" x2="183.51" y2="262.46" gradientUnits="userSpaceOnUse">
      <stop offset="0" stop-color="#0f9d87"/>
      <stop offset="1" stop-color="#112f6d"/>
    </linearGradient>
    <linearGradient id="linear-gradient-17" x1="165.31" y1="238" x2="201.26" y2="238" gradientTransform="matrix(1,0,0,1,0,0)" xlink:href="#linear-gradient-7"/>
    <linearGradient id="linear-gradient-18" x1="217.35" y1="122.97" x2="153.87" y2="337.33" gradientTransform="translate(13.44 -9.77) rotate(3.17)" xlink:href="#linear-gradient"/>
    <linearGradient id="Dégradé_sans_nom_10"  x1="168.39" y1="208.67" x2="145" y2="189.79" gradientUnits="userSpaceOnUse">
      <stop offset="0" stop-color="#0f9d87"/>
      <stop offset="1" stop-color="#112f6d"/>
    </linearGradient>
    <linearGradient id="Dégradé_sans_nom_14"  x1="118.8" y1="215.82" x2="128.13" y2="206.49" gradientUnits="userSpaceOnUse">
      <stop offset="0" stop-color="#0f9d87"/>
      <stop offset="1" stop-color="#112f6d"/>
    </linearGradient>
    <linearGradient id="Dégradé_sans_nom_18"  x1="56.44" y1="148.09" x2="16.38" y2="241.75" gradientUnits="userSpaceOnUse">
      <stop offset="0" stop-color="#0f9d87"/>
      <stop offset="1" stop-color="#112f6d"/>
    </linearGradient>
    <linearGradient id="linear-gradient-19" x1="-1910.06" y1="-373.85" x2="-1892.74" y2="-327.94" gradientTransform="translate(1981.17 830.76) rotate(9.29)" gradientUnits="userSpaceOnUse">
      <stop offset="0" stop-color="#f9b877"/>
      <stop offset="1" stop-color="#ef7a62"/>
    </linearGradient>
    <linearGradient id="linear-gradient-20" x1="182.83" y1="139.04" x2="156.65" y2="159.68" gradientUnits="userSpaceOnUse">
      <stop offset="0" stop-color="#ce1668"/>
      <stop offset="1" stop-color="#643c90"/>
    </linearGradient>
    <linearGradient id="linear-gradient-21" x1="15436.83" y1="255.31" x2="15454.03" y2="255.31" gradientTransform="translate(15625.6) rotate(-180) scale(1 -1)" gradientUnits="userSpaceOnUse">
      <stop offset="0" stop-color="#204899"/>
      <stop offset="1" stop-color="#2875b7"/>
    </linearGradient>
    <linearGradient id="linear-gradient-22" x1="7636.83" y1="258.4" x2="7654.03" y2="258.4" gradientTransform="translate(7825.6) rotate(-180) scale(1 -1)" xlink:href="#linear-gradient"/>
    <linearGradient id="linear-gradient-23" x1="15407.23" y1="255.35" x2="15415.28" y2="255.35" xlink:href="#linear-gradient-21"/>
    <linearGradient id="linear-gradient-24" x1="7607.23" y1="259.01" x2="7615.04" y2="259.01" gradientTransform="translate(7825.6) rotate(-180) scale(1 -1)" xlink:href="#linear-gradient"/>
    <linearGradient id="linear-gradient-25" x1="7651.23" y1="141.15" x2="7653.38" y2="127.92" gradientTransform="translate(7825.6) rotate(-180) scale(1 -1)" xlink:href="#linear-gradient-19"/>
    <linearGradient id="linear-gradient-26" x1="7658.16" y1="119.7" x2="7644.28" y2="130.32" gradientTransform="translate(7825.6) rotate(-180) scale(1 -1)" xlink:href="#linear-gradient-19"/>
    <linearGradient id="linear-gradient-27" x1="7647.72" y1="111.85" x2="7660.29" y2="128.03" gradientTransform="translate(7825.6) rotate(-180) scale(1 -1)" xlink:href="#linear-gradient-7"/>
    <linearGradient id="linear-gradient-28" x1="7656.44" y1="117.45" x2="7642.56" y2="128.07" gradientTransform="translate(7825.6) rotate(-180) scale(1 -1)" xlink:href="#linear-gradient-19"/>
    <linearGradient id="linear-gradient-29" x1="-2068.83" y1="-12.36" x2="-2075.44" y2="-41.92" gradientTransform="translate(2234.16)" xlink:href="#linear-gradient-19"/>
    <linearGradient id="linear-gradient-30" x1="-1923.09" y1="-372.78" x2="-1905.77" y2="-326.87" xlink:href="#linear-gradient-19"/>
    <linearGradient id="linear-gradient-31" x1="186.95" y1="99.48" x2="155.21" y2="132.26" gradientTransform="matrix(1,0,0,1,0,0)" xlink:href="#linear-gradient"/>
    <linearGradient id="linear-gradient-32" x1="185.6" y1="250.2" x2="216.76" y2="151.16" gradientTransform="matrix(1,0,0,1,0,0)" xlink:href="#linear-gradient-7"/>
    <linearGradient id="linear-gradient-33" x1="7649.06" y1="182.5" x2="7631.23" y2="205.54" gradientTransform="translate(7825.6) rotate(-180) scale(1 -1)" xlink:href="#linear-gradient-12"/>
    <linearGradient id="linear-gradient-34" x1="192.22" y1="119.87" x2="174.46" y2="202.06" gradientTransform="matrix(1,0,0,1,0,0)" xlink:href="#linear-gradient-7"/>
    <linearGradient id="linear-gradient-35" x1="173.74" y1="115.04" x2="155.53" y2="199.33" gradientTransform="matrix(1,0,0,1,0,0)" xlink:href="#linear-gradient-7"/>
    <linearGradient id="linear-gradient-36" x1="186.14" y1="118.16" x2="168.17" y2="201.37" gradientTransform="matrix(1,0,0,1,0,0)" xlink:href="#linear-gradient-7"/>
    <linearGradient id="_3"  x1="194.72" y1="216.28" x2="150.49" y2="89.33" gradientUnits="userSpaceOnUse">
      <stop offset="0" stop-color="#6cc9f0"/>
      <stop offset=".79" stop-color="#435ea8"/>
      <stop offset="1" stop-color="#3c519f"/>
    </linearGradient>
    <linearGradient id="linear-gradient-37" x1="137.78" y1="209.49" x2="104.48" y2="96.59" gradientTransform="matrix(1,0,0,1,0,0)" xlink:href="#linear-gradient"/>
    <linearGradient id="linear-gradient-38" x1="-2037.97" y1="171.15" x2="-2018.26" y2="199.62" gradientTransform="translate(2234.16)" xlink:href="#linear-gradient-19"/>
  </defs>
  <path class="cls-44" d="M76.49,239.33s-65.61,5.76-64.84-63.3c.77-69.06,80.22-39.78,108.58-70.21,47.19-50.64,108.15-39.56,131.58,23.32,24.19,64.92-59.45,125.16-175.32,110.2Z"/>
  <g>
    <g>
      <g>
        <path class="cls-45" d="M182.15,131.39c.16.4,0,.86-.39,1.06-.84.45-1.72.86-2.6,1.24-.43.18-.93-.02-1.11-.45,0,0,0-.01,0-.02-.17-.43.03-.91.45-1.09.84-.36,1.67-.75,2.47-1.18.41-.22.92-.06,1.14.35.01.03.03.05.04.08ZM175.3,134.09s.02.06.03.1c.12.45-.14.91-.59,1.04-.93.25-1.87.47-2.81.64-.46.08-.9-.22-.98-.68-.08-.46.22-.9.68-.98.89-.16,1.79-.37,2.67-.61.42-.11.85.11,1.01.5ZM168.03,135.22c.04.09.06.18.06.28.02.47-.34.86-.81.88-.96.04-1.93.04-2.88,0-.47-.02-.83-.42-.81-.88.02-.47.42-.83.88-.81.91.04,1.83.04,2.74,0,.37-.02.69.21.82.53ZM160.68,134.7c.06.14.08.31.05.47-.09.46-.53.76-.99.68-.94-.18-1.89-.39-2.81-.65-.45-.12-.71-.59-.59-1.04.12-.45.59-.71,1.04-.59.88.24,1.77.45,2.67.62.29.06.52.26.63.52ZM153.64,132.55c.08.2.09.44,0,.65-.19.43-.68.63-1.11.44-.88-.38-1.75-.8-2.59-1.25-.41-.22-.57-.73-.35-1.14.22-.41.73-.57,1.14-.35.8.43,1.63.83,2.46,1.19.21.09.37.26.45.46ZM147.25,128.89c.11.26.08.57-.1.82-.28.38-.8.46-1.18.18-.77-.56-1.53-1.17-2.25-1.8-.35-.31-.39-.84-.08-1.19.31-.35.84-.39,1.19-.08.69.6,1.41,1.17,2.14,1.71.13.1.23.22.28.37ZM133.8,100.93c.04.11.07.23.06.35-.04.91-.04,1.83,0,2.74.02.47-.34.86-.81.88-.47.02-.86-.34-.88-.81-.04-.96-.04-1.93,0-2.88.02-.47.41-.83.88-.81.34.01.63.23.75.53ZM141.83,123.91c.13.33.05.71-.23.95-.35.31-.89.27-1.19-.08-.63-.72-1.23-1.48-1.79-2.25-.27-.38-.19-.91.19-1.18.38-.27.91-.19,1.18.19.53.73,1.11,1.45,1.7,2.14.06.07.11.15.15.24ZM134.32,108.27c.02.05.04.11.05.16.16.89.37,1.79.61,2.67.12.45-.14.92-.59,1.04-.45.12-.92-.14-1.04-.59-.25-.92-.47-1.87-.64-2.81-.08-.46.22-.9.68-.98.4-.07.79.15.94.51ZM137.66,117.85c.16.4,0,.86-.39,1.06-.41.22-.92.06-1.14-.35-.45-.84-.87-1.72-1.25-2.6,0,0,0-.01,0-.02-.17-.43.03-.91.45-1.09.43-.18.93.02,1.11.44.36.84.76,1.67,1.18,2.47.01.03.03.05.04.08Z"/>
        <path class="cls-45" d="M134.59,95.04c.06.15.08.33.04.5-.1.42-.19.86-.27,1.29-.09.46-.53.76-.99.68-.46-.09-.76-.53-.68-.99.08-.45.18-.91.28-1.36.1-.45.56-.74,1.01-.64.28.06.5.26.6.51Z"/>
      </g>
      <g>
        <path class="cls-45" d="M149.68,74.16c.15.38.01.82-.35,1.04-.37.22-.75.46-1.11.7-.39.26-.91.15-1.17-.24-.26-.39-.15-.91.24-1.17.39-.25.78-.5,1.17-.74.4-.24.92-.11,1.16.29.02.04.04.08.06.12Z"/>
        <path class="cls-45" d="M197.2,89.99c.15.36.29.73.42,1.09.16.44-.07.92-.5,1.08-.44.16-.93-.07-1.08-.5-.31-.85-.65-1.68-1.03-2.49-.2-.42-.01-.93.41-1.12.42-.2.93-.01,1.12.41.23.5.45,1.01.66,1.53ZM198.85,95.37s.03.09.04.14c.2.92.36,1.86.49,2.79.06.46-.27.89-.73.95-.46.06-.89-.27-.95-.73-.12-.89-.27-1.78-.46-2.65-.1-.46.19-.91.65-1.01.41-.09.81.13.96.51ZM194.4,84.57c.15.37.02.8-.33,1.03-.39.25-.92.14-1.17-.26-.48-.75-1-1.49-1.55-2.2-.28-.37-.21-.9.16-1.18.37-.28.9-.21,1.19.16.57.75,1.12,1.53,1.63,2.32.03.05.05.09.07.14ZM199.6,102.58c.04.1.06.21.06.32,0,.94-.05,1.9-.14,2.83-.04.46-.45.81-.92.76-.47-.04-.81-.45-.76-.92.08-.89.13-1.8.13-2.69,0-.47.38-.84.85-.84.35,0,.65.22.78.53ZM189.84,78.94c.12.3.06.66-.18.91-.33.33-.86.34-1.2,0-.63-.63-1.31-1.24-1.99-1.81-.36-.3-.41-.83-.11-1.19.3-.36.83-.41,1.19-.11.72.6,1.43,1.25,2.1,1.91.08.08.15.18.19.28ZM184.16,74.45c.1.24.08.53-.07.76-.25.4-.77.52-1.16.27-.76-.47-1.55-.92-2.34-1.33-.42-.21-.58-.72-.36-1.14.21-.41.72-.58,1.14-.36.84.43,1.67.9,2.46,1.4.16.1.27.24.34.4ZM177.64,71.3c.07.18.08.4.01.6-.16.44-.64.67-1.08.52-.84-.3-1.71-.56-2.58-.79-.45-.12-.72-.58-.6-1.03.12-.45.58-.72,1.03-.6.91.24,1.82.52,2.71.83.24.08.41.26.5.48ZM170.58,69.65c.05.13.07.27.05.42-.06.46-.48.79-.94.74-.89-.11-1.79-.18-2.69-.21-.47-.02-.83-.41-.82-.87.02-.47.41-.83.87-.82.94.03,1.89.11,2.83.22.32.04.57.25.68.52ZM163.33,69.59c.03.07.05.15.06.23.05.46-.29.88-.75.93-.89.09-1.78.22-2.66.39-.46.09-.9-.22-.99-.67-.09-.46.21-.9.67-.99.93-.18,1.87-.31,2.8-.41.38-.04.73.18.87.52ZM156.26,71.12s.01.03.02.05c.15.44-.09.92-.53,1.07-.62.21-1.25.44-1.86.69-.22.09-.44.18-.66.27-.43.18-.93-.01-1.11-.44-.19-.43.01-.93.44-1.11.23-.1.46-.19.69-.29.64-.26,1.3-.5,1.96-.72.43-.14.89.07,1.05.48Z"/>
        <path class="cls-45" d="M198.74,109.79c.06.16.08.33.04.51-.1.45-.22.9-.34,1.34-.12.45-.59.71-1.04.59-.45-.12-.71-.59-.59-1.04.12-.42.23-.85.33-1.28.11-.45.56-.74,1.01-.63.28.07.49.26.59.51Z"/>
      </g>
      <g>
        <path class="cls-36" d="M189.23,112.4c.08-.15.06-.33-.05-.46l-3.23-3.56c.6-2.16.87-4.44.75-6.74l3.93-2.77c.14-.1.2-.27.15-.43l-1.61-5.54c-.05-.16-.19-.28-.36-.28l-4.8-.24c-1.13-2.01-2.57-3.79-4.24-5.29l.82-4.74c.03-.17-.05-.33-.2-.41l-5.05-2.78c-.15-.08-.33-.06-.46.05l-3.56,3.23c-2.16-.61-4.44-.87-6.74-.75l-2.77-3.93c-.1-.14-.27-.2-.43-.15l-5.54,1.61c-.16.05-.28.19-.28.36l-.24,4.8c-2.01,1.13-3.79,2.57-5.29,4.24l-4.74-.82c-.17-.03-.33.05-.41.2l-2.78,5.05c-.08.15-.06.33.05.46l3.23,3.56c-.61,2.16-.87,4.44-.75,6.74l-3.93,2.77c-.14.1-.2.27-.15.43l1.61,5.54c.05.16.19.28.36.28l4.8.24c1.13,2.01,2.57,3.79,4.24,5.29l-.82,4.74c-.03.17.05.33.2.41l5.05,2.78c.15.08.33.06.46-.05l3.56-3.23c2.16.61,4.44.87,6.74.75l2.77,3.93c.1.14.27.2.43.15l5.54-1.61c.16-.05.28-.19.28-.36l.24-4.8c2.01-1.13,3.79-2.57,5.29-4.24l4.74.82c.17.03.33-.05.41-.2l2.78-5.05Z"/>
        <path class="cls-6" d="M171.03,100.56c1.06,2.62.06,5.7-2.45,7.17-2.76,1.62-6.32.69-7.93-2.07-.78-1.34-1-2.9-.61-4.39.39-1.5,1.34-2.75,2.68-3.54,2.76-1.62,6.32-.69,7.93,2.07.15.25.27.5.38.76ZM161.53,104.38c.08.2.18.4.29.59,1.24,2.11,3.97,2.83,6.08,1.59,2.11-1.24,2.83-3.97,1.59-6.08-1.24-2.11-3.97-2.83-6.08-1.59-1.02.6-1.75,1.56-2.05,2.71-.24.93-.18,1.9.17,2.78Z"/>
        <path class="cls-6" d="M178.75,97.32c.18.45.34.91.48,1.38h0c.04.15.08.3.12.45.19.74.32,1.49.39,2.25,0,.01,0,.02,0,.03,0,.03,0,.06,0,.09,0,.06,0,.11.01.17.01.15-.08.28-.21.34-.03.01-.07.02-.1.02-.19.01-.35-.13-.36-.31-.07-.96-.24-1.92-.51-2.85-1.34-4.62-4.94-7.99-9.24-9.25-2.4-.7-5.01-.75-7.58,0-.45.13-.89.28-1.32.46-2.89,1.17-5.27,3.27-6.79,6.04-1.75,3.18-2.15,6.84-1.14,10.33,2.09,7.19,9.63,11.34,16.82,9.25.44-.13.88-.28,1.3-.45,1.84-.74,3.5-1.88,4.86-3.34.04-.04.08-.07.12-.08.12-.05.26-.03.36.07.14.13.15.34.02.48-1.42,1.53-3.16,2.73-5.1,3.51-.45.18-.9.34-1.37.47-7.55,2.19-15.47-2.17-17.66-9.71-1.06-3.66-.63-7.51,1.2-10.84,1.6-2.9,4.1-5.11,7.13-6.34.45-.18.91-.34,1.39-.48,3.66-1.06,7.51-.63,10.84,1.2,2.9,1.6,5.12,4.1,6.34,7.13Z"/>
      </g>
    </g>
    <g>
      <g>
        <path class="cls-45" d="M213.59,149.8c.08.21.03.46-.16.6-.35.27-.71.54-1.07.8-.24.16-.56.11-.73-.13-.17-.24-.11-.56.13-.73.35-.24.69-.5,1.02-.76.23-.18.55-.14.73.09.03.04.06.08.07.13Z"/>
        <path class="cls-45" d="M210.23,151.99c.1.25,0,.53-.24.66-.67.36-1.38.68-2.08.97-.15.06-.3.12-.45.18-.27.1-.57-.05-.67-.3-.1-.27.03-.57.3-.67.14-.05.29-.11.43-.17.67-.27,1.34-.58,1.99-.92.26-.13.57-.04.71.22,0,.02.02.03.02.05ZM205.16,153.92s.02.05.02.07c.07.28-.1.56-.38.63-.9.22-1.82.39-2.73.5-.29.03-.55-.17-.58-.46-.03-.29.17-.55.46-.58.87-.1,1.75-.26,2.61-.47.26-.06.51.07.61.31ZM199.78,154.55c.02.06.04.13.04.2,0,.29-.24.52-.53.52-.92,0-1.86-.07-2.77-.19-.29-.04-.49-.3-.45-.59.04-.29.3-.49.59-.45.87.12,1.76.18,2.64.18.22,0,.4.14.48.33ZM194.4,153.84c.04.1.05.21.02.33-.07.28-.36.45-.64.37-.9-.23-1.78-.52-2.64-.86-.27-.11-.4-.41-.29-.68.11-.27.41-.4.68-.29.82.32,1.66.6,2.52.82.17.04.29.16.35.31ZM189.37,151.84c.06.14.05.3-.03.45-.14.25-.46.35-.71.21-.81-.44-1.6-.94-2.35-1.48-.23-.17-.29-.49-.12-.73.17-.23.49-.29.73-.12.72.51,1.47.99,2.24,1.41.11.06.19.15.23.26ZM184.97,148.68c.07.18.04.4-.1.55-.2.21-.53.22-.74.03-.68-.63-1.32-1.3-1.92-2.01-.19-.22-.16-.55.06-.74.22-.19.55-.16.74.06.57.67,1.18,1.32,1.83,1.91.06.05.1.12.13.19ZM181.47,144.54c.09.23.01.49-.2.63-.24.16-.57.09-.72-.15-.5-.77-.96-1.59-1.37-2.42-.12-.26-.02-.57.24-.7.26-.13.57-.02.7.24.39.79.83,1.57,1.3,2.31.02.03.03.06.05.09ZM178.38,137.05s.02.06.03.09c.16.74.36,1.49.6,2.23.04.11.07.22.11.33.09.27-.05.57-.32.66-.27.09-.58-.05-.66-.32-.04-.12-.08-.23-.12-.35-.25-.77-.46-1.55-.62-2.33-.06-.28.12-.56.4-.62.25-.05.5.08.59.31Z"/>
      </g>
      <g>
        <path class="cls-45" d="M220.24,124c.11.26-.02.57-.28.68-.27.11-.57-.01-.68-.28-.34-.8-.72-1.59-1.15-2.34-.14-.25-.06-.57.2-.71.25-.14.57-.05.71.2.45.79.85,1.61,1.21,2.45,0,0,0,0,0,0ZM221.12,126.52s.01.04.02.05c.25.87.45,1.77.59,2.67.04.28-.15.55-.43.6-.29.05-.55-.15-.6-.43-.13-.86-.32-1.71-.56-2.55-.08-.28.08-.57.36-.64.26-.07.53.06.63.31ZM217.6,119.37c.09.21.02.47-.17.61-.23.17-.56.12-.73-.11-.52-.7-1.08-1.37-1.68-1.99-.2-.21-.19-.54.02-.74.21-.2.54-.19.74.02.63.66,1.22,1.36,1.76,2.09.03.04.05.08.07.12ZM221.95,131.79c.02.06.04.11.04.18.03.91,0,1.83-.08,2.73-.03.29-.28.5-.57.47-.29-.03-.5-.28-.47-.57.08-.86.1-1.74.07-2.61,0-.29.22-.53.5-.54.23,0,.42.13.5.33ZM213.92,115.51c.07.17.04.37-.08.53-.18.22-.51.26-.73.07-.67-.55-1.38-1.06-2.11-1.53-.24-.15-.32-.48-.16-.72.15-.24.48-.32.72-.16.77.49,1.51,1.03,2.21,1.6.07.06.12.13.15.21ZM209.43,112.65c.05.13.05.28-.01.42-.12.26-.44.37-.7.25-.78-.37-1.6-.7-2.42-.98-.27-.09-.42-.39-.33-.66.09-.27.39-.42.66-.33.86.29,1.71.64,2.53,1.03.12.06.21.16.26.28ZM204.37,110.95c.04.09.05.2.03.3-.06.28-.33.46-.62.41-.85-.18-1.72-.3-2.58-.37-.29-.02-.5-.28-.48-.56.02-.29.28-.5.56-.48.9.07,1.81.21,2.71.39.18.04.32.16.38.32Z"/>
        <path class="cls-45" d="M221.47,137.13c.04.09.05.2.03.3-.09.44-.2.87-.32,1.3-.08.28-.36.44-.64.36-.28-.08-.44-.36-.36-.64.11-.4.21-.82.3-1.24.06-.28.34-.46.62-.4.18.04.31.16.37.32Z"/>
      </g>
      <g>
        <path class="cls-36" d="M215.06,139.25c.05-.1.04-.22-.04-.3l-2.16-2.38c.4-1.45.58-2.97.5-4.51l2.63-1.85c.09-.06.13-.18.1-.29l-1.08-3.71c-.03-.11-.13-.18-.24-.19l-3.21-.16c-.76-1.35-1.72-2.54-2.84-3.54l.55-3.17c.02-.11-.03-.22-.13-.28l-3.38-1.86c-.1-.05-.22-.04-.3.04l-2.38,2.16c-1.45-.4-2.97-.58-4.51-.5l-1.85-2.63c-.07-.09-.18-.13-.29-.1l-3.71,1.08c-.11.03-.18.13-.19.24l-.16,3.21c-1.35.76-2.54,1.72-3.54,2.84l-3.17-.55c-.11-.02-.22.03-.28.13l-1.86,3.38c-.05.1-.04.22.04.3l2.16,2.38c-.4,1.45-.58,2.97-.5,4.51l-2.63,1.85c-.09.07-.13.18-.1.29l1.08,3.71c.03.11.13.18.24.19l3.21.16c.76,1.35,1.72,2.54,2.84,3.54l-.55,3.17c-.02.11.03.22.13.28l3.38,1.86c.1.05.22.04.3-.04l2.38-2.16c1.45.4,2.97.58,4.51.5l1.85,2.63c.06.09.18.13.29.1l3.71-1.08c.11-.03.18-.13.19-.24l.16-3.21c1.35-.76,2.54-1.72,3.54-2.84l3.17.55c.11.02.22-.03.28-.13l1.86-3.38Z"/>
        <path class="cls-6" d="M202.95,131.3c.31.78.37,1.64.15,2.47-.27,1.02-.91,1.88-1.83,2.41-1.88,1.1-4.3.47-5.4-1.41-1.1-1.88-.47-4.3,1.41-5.4.91-.53,1.97-.68,2.99-.41,1.02.27,1.88.91,2.41,1.83.1.17.19.35.26.53ZM196.59,133.85c.05.13.12.26.19.38.81,1.38,2.59,1.85,3.97,1.04.67-.39,1.15-1.02,1.34-1.77.2-.75.09-1.53-.3-2.2h0c-.39-.67-1.02-1.15-1.77-1.34-.75-.2-1.53-.09-2.2.3-1.26.74-1.76,2.28-1.23,3.59Z"/>
        <path class="cls-6" d="M208.32,129.05c.12.31.23.62.33.94.19.64.31,1.31.36,1.97,0,.03,0,.06,0,.09.02.23-.12.44-.32.52-.05.02-.1.03-.16.04-.29.02-.54-.2-.56-.48-.04-.62-.15-1.24-.33-1.84h0s-.02-.07-.03-.1c-.43-1.42-1.19-2.68-2.21-3.69-.56-.55-1.19-1.03-1.89-1.42,0,0-.01,0-.02,0-.02,0-.03-.02-.05-.03-2.06-1.13-4.43-1.39-6.69-.74-.29.08-.58.18-.85.3-1.87.75-3.41,2.12-4.4,3.91-1.13,2.06-1.39,4.43-.74,6.69.65,2.25,2.15,4.12,4.2,5.25,2.06,1.13,4.43,1.39,6.69.74.29-.08.57-.18.84-.29,1.19-.48,2.27-1.22,3.14-2.16.05-.06.12-.1.19-.13.18-.07.4-.04.55.1.21.2.22.53.03.74-.98,1.06-2.18,1.88-3.52,2.42-.31.12-.62.23-.94.33-2.52.73-5.18.44-7.48-.83-2.3-1.27-3.97-3.35-4.7-5.87-.73-2.52-.44-5.18.83-7.48,1.1-2,2.83-3.53,4.92-4.37.31-.13.63-.24.96-.33,4.88-1.42,9.99,1.14,11.86,5.76Z"/>
      </g>
    </g>
  </g>
  <g>
    <rect class="cls-33" x="50.94" y="108.44" width="5.75" height="130.39"/>
    <rect class="cls-33" x="29.16" y="95.3" width="49.16" height="49.16" rx="11.62" ry="11.62"/>
    <rect class="cls-42" x="31.97" y="97.71" width="43.74" height="43.74" rx="10.33" ry="10.33"/>
    <g>
      <path class="cls-4" d="M44.66,106.75l-2.87-1.41c-.26-.13-.57-.08-.79.11l-.31.28-.5.45-.32.29c-.22.19-.29.5-.19.78l1.1,3c.17.46.55.8,1.02.9l1.94.42,12.61,14,.73-.65.5-.45.69-.62-12.61-14-.2-1.99c-.05-.48-.34-.91-.78-1.12Z"/>
      <path class="cls-27" d="M44.46,106.92l-2.6-1.28c-.24-.12-.53-.09-.73.08l-.28.25-.45.41-.29.26c-.19.18-.25.47-.16.72l1,2.71c.15.41.5.72.93.81l1.76.38,11.37,12.62.65-.58.45-.41.71-.64-11.37-12.62-.23-1.75c-.05-.43-.35-.78-.75-.97Z"/>
      <g>
        <path class="cls-30" d="M66.64,128.59l-8.96-8-4.53,4.09,6.9,9.53c.65.9,1.54,1.6,2.56,2.03l2.75,1.17c.47.19,1.03.14,1.41-.2l1.88-1.69c.34-.31.46-.8.38-1.25l-.46-2.31c-.25-1.29-.94-2.49-1.92-3.37Z"/>
        <rect class="cls-51" x="51.47" y="121.8" width="7.6" height="1.58" rx=".75" ry=".75" transform="translate(-67.84 68.48) rotate(-42.01)"/>
        <g>
          <path class="cls-14" d="M60.1,123.08h.01c.35,0,.64.29.64.64v12.77c0,.35-.29.64-.64.64h-.01c-.35,0-.64-.29-.64-.64v-12.77c0-.35.29-.64.64-.64Z" transform="translate(-71.6 73.61) rotate(-41.99)"/>
          <path class="cls-8" d="M62.34,121.06h.01c.35,0,.64.29.64.64v12.77c0,.35-.29.64-.64.64h-.01c-.35,0-.64-.29-.64-.64v-12.77c0-.35.29-.64.64-.64Z" transform="translate(-69.7 74.64) rotate(-42.01)"/>
        </g>
      </g>
    </g>
    <g>
      <path class="cls-29" d="M38.56,128.13l-.6.56c-1.04.97-1.35,2.32-.7,3.02l.78.83c.65.7,2.02.48,3.06-.48l.6-.56s.08-.08.12-.11l17.21-17.48-1.69-1.81-18.65,15.94s-.08.07-.12.11ZM39.39,128.93c.78-.73,1.77-.94,2.2-.48.43.46.15,1.43-.63,2.16-.78.73-1.77.94-2.2.48-.43-.46-.15-1.43.63-2.16Z"/>
      <path class="cls-38" d="M62.6,105.46l-3.51,3.27c-.25.23-.38.57-.35.91l.16,1.74c.05.5.42.9.92.98l1.73.29c.34.06.68-.05.93-.28l3.51-3.27c.53-.49,1.4-.14,1.42.58.05,1.73-.64,3.5-2.04,4.8-2.52,2.35-6.09,2-8.36-.42-2.26-2.43-2.36-6.01.16-8.36,1.4-1.3,3.21-1.86,4.93-1.69.72.07,1.01.97.48,1.46Z"/>
      <path class="cls-31" d="M62.91,105.79l-3.51,3.27c-.25.23-.38.57-.35.91l.16,1.74c.05.5.42.9.92.98l1.73.29c.34.06.68-.05.93-.28l3.51-3.27c.53-.49,1.4-.14,1.42.58.05,1.73-.64,3.5-2.04,4.8-2.52,2.35-6.09,2-8.36-.42-2.26-2.43-2.36-6.01.16-8.36,1.4-1.3,3.21-1.86,4.93-1.69.72.07,1.01.97.48,1.46Z"/>
      <path class="cls-48" d="M38.8,128.4l-.6.56c-1.04.97-1.35,2.32-.7,3.02l.78.83c.65.7,2.02.48,3.06-.48l.6-.56s.08-.08.12-.11l17.21-17.48-1.69-1.81-18.65,15.94s-.08.07-.12.11ZM39.64,129.19c.78-.73,1.77-.94,2.2-.48.43.46.15,1.43-.63,2.16-.78.73-1.77.94-2.2.48-.43-.46-.15-1.43.63-2.16Z"/>
    </g>
  </g>
  <g>
    <g>
      <path class="cls-54" d="M144.3,173.74c24.4,6.1,38.72,22.41,45.77,24.06,7.06,1.65,35.34,3.16,39.95,7.44,4.61,4.28.21,7.33,6.13,12.84,6.56,18.51-13.75,24.05-13.75,24.05l-184.6-1.5s-12.46,1.12-12.73-7.78c-.28-8.9-.47-12.89.18-20.91.65-8.01,3.89-8.91,5.67-13.07,1.78-4.15,19.11-4.61,22.49-9.23,3.37-4.62,7.39-11.99,21.7-14.5,19.76-3.47,55.03-4.94,69.18-1.4Z"/>
      <path class="cls-34" d="M24.09,232.31c.32,10.23,17.66,8.41,17.73,8.41,0,0,13.78-10.55-5.18-10.15-5.7-.15-11.48-3.17-11.48-3.17l-1.08,4.9Z"/>
      <path class="cls-12" d="M237.28,222.64s.18,2.61-4.71,5.27c-6.06,3.3-30.9-.51-30.9-.51l1.41,13.71,19.82,1.01c-.46.13,26.03-1.4,14.37-19.49Z"/>
      <path class="cls-11" d="M56.55,203.04s-.59-4.64,4.28-10.34c4.88-5.69,7.73-9.45,11.48-10.41,3.75-.97,31.21-4.77,33.01-1.84,1.8,2.92,4.13,20.86,4.13,20.86l-52.9,1.73Z"/>
      <path class="cls-5" d="M72.81,181.79c3.08-.46,26.43-3.17,32.46-2.4l1.56,6-50.3,17.64s-.24-3.82,2.27-7.59c4.22-6.33,10.79-13.25,14.01-13.65Z"/>
      <path class="cls-20" d="M113.53,180.44c.76,3.47,3.56,20.37,3.56,20.37l59.37-.27s-18.71-17.2-33.1-19.92c-14.39-2.72-30.32-2.01-29.83-.18Z"/>
      <path class="cls-19" d="M141.33,179.34c-11.72-1.63-16.02-1.32-28.3-.24l1.18,4.91s18.28-3.59,35.32-1.51c0,0-4.38-2.63-8.2-3.16Z"/>
      <path class="cls-13" d="M228.66,204.35s-9.62-3.08-11.97,4.52c-2.24,7.25,19.47,9.2,19.47,9.2,0,0-1.6-10.75-7.5-13.72Z"/>
      <path class="cls-42" d="M53.26,194.82c.05,0,.11,0,.16-.02,2.26-.68,4.16-3.06,6.36-5.82,3.22-4.02,6.86-8.58,12.81-9.72,11.4-2.18,28.69-3.68,28.86-3.7.31-.03.54-.3.51-.6-.03-.31-.29-.54-.6-.51-.17.01-17.52,1.53-28.98,3.72-6.35,1.21-10.3,6.15-13.47,10.12-2.09,2.61-3.89,4.86-5.81,5.45-.3.09-.46.4-.37.7.07.24.29.4.53.4Z"/>
      <path class="cls-42" d="M35.58,201.15c.21,0,.4-.11.5-.31.94-1.89,5.09-2.75,9.1-3.57,1.44-.3,2.92-.6,4.28-.96.3-.08.48-.38.4-.68-.08-.3-.38-.47-.68-.4-1.34.35-2.81.65-4.23.95-4.47.92-8.69,1.79-9.87,4.17-.14.28-.02.61.25.75.08.04.16.06.25.06Z"/>
      <path class="cls-42" d="M117.15,239.53h.06c.32,0,.58-.29.58-.61,0-.24-.14-.45-.34-.54-1.16-1.86-2.66-21.97-3.34-34.36-.02-.32-.29-.58-.62-.56-.32.02-.57.29-.55.62,0,.09.49,8.85,1.18,17.47,1.41,17.56,2.28,17.98,3.04,17.98Z"/>
      <path class="cls-49" d="M97.09,240.57c.13-.78.21-1.9.21-2.92,0-12.18-9.87-22.01-22.05-22.01s-22.05,9.81-22.05,21.99c0,1.02.07,2.16.21,2.94h43.68Z"/>
      <g>
        <circle class="cls-10" cx="75.08" cy="237.12" r="17.97"/>
        <circle class="cls-9" cx="75.08" cy="237.12" r="14.59" transform="translate(-13 4.51) rotate(-3.17)"/>
        <path class="cls-42" d="M87.33,242.41s-.07,0-.1-.02c-.13-.06-.19-.21-.14-.34.66-1.56.99-3.22.99-4.93,0-6.98-5.68-12.66-12.66-12.66-2.17,0-4.3.56-6.18,1.61-.12.07-.28.03-.35-.1-.07-.13-.03-.28.1-.35,1.95-1.1,4.18-1.67,6.43-1.67,7.27,0,13.18,5.91,13.18,13.18,0,1.78-.35,3.51-1.04,5.13-.04.1-.14.16-.24.16Z"/>
      </g>
      <path class="cls-53" d="M205.3,241.35c.13-.78.21-1.85.21-2.87,0-12.18-9.87-21.99-22.05-21.99s-22.05,9.78-22.05,21.95c0,1.02.07,2.12.21,2.9h43.68Z"/>
      <g>
        <circle class="cls-2" cx="183.29" cy="238" r="17.97"/>
        <circle class="cls-17" cx="183.29" cy="238" r="14.59" transform="translate(-12.88 10.5) rotate(-3.17)"/>
        <path class="cls-42" d="M195.54,243.29s-.07,0-.1-.02c-.13-.06-.19-.21-.14-.34.66-1.56.99-3.22.99-4.93,0-6.98-5.68-12.66-12.66-12.66-2.17,0-4.3.56-6.18,1.61-.12.07-.28.03-.35-.1-.07-.13-.03-.28.1-.35,1.95-1.1,4.18-1.67,6.43-1.67,7.27,0,13.18,5.91,13.18,13.18,0,1.78-.35,3.51-1.04,5.13-.04.1-.14.16-.24.16Z"/>
      </g>
    </g>
    <path class="cls-35" d="M166.74,199.28l-4.51-4.72c-1.88-1.97-4.24-3.31-6.81-3.87l-8.91-1.94c-2.45-.53-4.79,1.32-5.05,3.99l-.06.63c-.27,2.73,1.72,5.1,4.26,5.07l11.48-.14c1.6-.02,3.06,1,3.69,2.59l.21.53c.28.7.92,1.16,1.63,1.16h2.82c1.6,0,2.38-2.09,1.24-3.3Z"/>
    <path class="cls-50" d="M120.26,204.67h14.89c1.16,0,1.98,1.25,1.58,2.42-.68,1.99-2.3,4.52-6.16,4.82-3.47.27-7.84-1.85-11.14-3.87-1.5-.91-.89-3.38.83-3.38Z"/>
    <path class="cls-28" d="M25.2,211.94l2.6.46c.87.15,1.5.91,1.5,1.79v6.14c0,1-.81,1.81-1.81,1.81h-2.59l.3-10.21Z"/>
  </g>
  <g>
    <g>
      <path class="cls-3" d="M150.73,160.65l2.82,3.86c4.84.32,8.76-.56,11.89-1.98-1.01-4.5-2.32-7.29-3.44-8.98-5.46,5.52-11.27,7.1-11.27,7.1Z"/>
      <path class="cls-26" d="M176.14,152.08l-5.9-13.69c-1.66,6.91-4.89,11.78-8.24,15.16,1.12,1.69,2.43,4.48,3.44,8.98,7.81-3.54,10.7-10.45,10.7-10.45Z"/>
    </g>
    <path class="cls-7" d="M182.3,258.77c-4.01.18-7.88.07-10.47-.06,2.36-1.68,7.79-5.33,12.33-6.78l3.12-.19s1.06,1.61,1.43,5.29c-.52.64-2.03,1.54-6.41,1.75Z"/>
    <path class="cls-23" d="M171.8,258.73s.02-.02.03-.02c2.59.13,6.47.25,10.47.06,4.38-.2,5.9-1.1,6.41-1.75.02.17.04.34.05.52.06.81-.53,1.52-1.34,1.58-3.28.25-11.41.81-15.34.6-.52-.03-.71-.69-.29-.99Z"/>
    <path class="cls-21" d="M210.34,257.7c.29-1.88.76-4.6,1.13-5.29.57-1.09,2.52,0,2.52,0,0,0,1.37.64,2,1.7.4.68,1.51,2.61,2.27,3.92.09.15.12.31.12.47l-7.81.27c-.19-.31-.28-.68-.22-1.07Z"/>
    <path class="cls-39" d="M218.37,258.5c-.01.45-.37.85-.87.87l-5.57.15c-.59.02-1.1-.29-1.38-.74l7.81-.27Z"/>
    <path class="cls-36" d="M164.17,136.76c4.98-1.31,14.18-3.35,21.49-2.91,1.68.1,3.03,1.43,3.12,3.11,1.11,19.49,2.62,36.78,5.46,46.85-6.39,2.53-12.73,3.7-18.99,2.78-4.68-10.03-8.78-21.62-12.28-34.78,0,0-2.05-10.49-.06-13.99.31-.55.72-.92,1.25-1.06Z"/>
    <path class="cls-22" d="M176.16,123.11s1.26,7.51,1.63,10.98c.06.56-.23,1.1-.74,1.36-1.38.71-4.31,1.85-7.51.8-.53-.17-.87-.68-.86-1.24l.22-10.02,7.26-1.88Z"/>
    <g>
      <path class="cls-40" d="M167.95,114.79s-2.43,5.58-2.59,8.5c-.16,2.93-.79,4.83,2.59,5.42,3.38.59,6.24-1.1,7.78-4.01,0,0,2.42-4.49,1.88-6.33s-9.66-3.58-9.66-3.58Z"/>
      <path class="cls-32" d="M174.57,122.6h-.43s1.76-3.62.21-4.25c-1.55-.64-6.29-.63-7.61-2.81-1.28-2.1,2.09-3.39,3.8-4.15.11-.05-2.03-.32-1.97-.22l-.35-.26c.1.18,1.22-.68,1.27-.88.05-.19,1.38-1,1.48-.83.41.65-1.29,1.49,1.65,2.04,4.18.77,6.94,2.46,7.01,5.35,0,.18.2.28.36.19.31-.19-.92-.28-.26.28.47.4.77.86.84,1.48.08.72-.45,1.6-.96,2.08-.3.28-.46.65-.45,1.06,0,.42.25.76.3,1.16.06.52-.45.88-.85,1.1-.55.32-1.1.64-1.62,1-.3.2-.89.82-1.27.72-.11-.03-.18-.13-.17-.24l.16-2.56c0-.13-.1-.24-.23-.24h-.91Z"/>
      <path class="cls-47" d="M174.47,123.14s.93-3.56,2.52-2.56c1.6,1-.83,3.99-2.11,4.13l-.41-1.56Z"/>
    </g>
    <g>
      <path class="cls-43" d="M201.68,162.72c2.46,6.91,1.08,14.33,1.08,14.33l3.25.87s4.2-4.99,3.24-16.07c-3-.46-5.81.25-7.56.87Z"/>
      <path class="cls-36" d="M209.24,161.84c-.11-1.25-.28-2.56-.53-3.96-2.19-12.22-17.86-21.61-21.54-23.67-.34-.19-.76.07-.75.46l.52,16.61c8.72,1.17,12.85,6.16,14.73,11.44,1.75-.63,4.56-1.33,7.56-.87Z"/>
    </g>
    <path class="cls-41" d="M142.73,161.93c-.57-.26-.99-.77-1.15-1.38-.31-1.18-.58-3.04.69-3.39,1.89-.51,4.56,3.3,4.56,3.3l1.15,2.79,1.32.93c-1.37.15-3.8-.87-6.57-2.26Z"/>
    <path class="cls-16" d="M180.15,119.78c-1.99-.54-3.97-1.09-5.95-1.65-3.38-.96-6.81-1.81-10.15-2.92-.71-.23-1.42-.46-2.14-.67-.43-.13-.96-.34-1.25-.7-.32-.39-.18-.98.36-1,.93-.03,1.9.09,2.82.25.26.05,2.88.54,2.87.59,0,0,.99-6.86,8.75-4.47,9.35,2.88,5.85,11.19,4.69,10.57Z"/>
    <path class="cls-25" d="M175.26,186.79c.19,1.01,7.02,43.72,7.43,65.82,0,.37.26.68.6.73.87.13,2.55.3,4.19-.03.22-.04.39-.24.41-.49.24-4.12,2.16-38.94-.19-55.33,0,0,19.4,43.82,22.34,55.9.07.29.32.49.61.48.83-.05,2.56-.21,3.93-.75.49-.19.77-.75.65-1.3-1.64-7.23-13.16-57.05-20.98-68.02l-18.99,2.99Z"/>
    <path class="cls-46" d="M187.7,196.82c.06,0,.13-.02.18-.07.1-.1.1-.26,0-.36l-2.6-2.66c-.1-.1-.26-.1-.36,0-.1.1-.1.26,0,.36l2.6,2.66c.05.05.12.08.18.08Z"/>
    <path class="cls-18" d="M175.54,187.25l-7.1-16.8-1.18-18.96,14.5-1.31c3.18,5.66,6.47,10.87,10.02,14.96.15.17.26.37.31.59l4.54,17.59-21.1,3.94Z"/>
    <path class="cls-24" d="M167.27,151.48c-1.54-4.45-2.06-9.08-3.1-14.72,1.45-.91,1.95-1.34,3.34-1.03.95,5.66,1.94,11.02,3.19,15.96l-3.43-.21Z"/>
    <path class="cls-37" d="M178.82,150.46c.02-5.49.09-11.04,1.23-16.67,1.8-.33,2.58-.47,3.82,0-1.38,5.99-1.4,11.88-2.1,17.25l-2.95-.58Z"/>
    <g>
      <path class="cls-15" d="M222.01,188.16l2.89,1.76c4.96,3.02,7.33,8.17,5.3,11.51l-2.42,3.97c-2.03,3.34-7.7,3.61-12.66.59l-2.89-1.76c-.19-.12-.38-.24-.57-.36l-83.42-55.8,5.27-8.66,87.92,48.4c.2.11.39.22.58.34ZM219.33,192.04c-3.73-2.27-7.85-2.31-9.2-.09-1.35,2.22.58,5.86,4.32,8.13,3.73,2.27,7.85,2.31,9.2.09,1.35-2.22-.58-5.86-4.32-8.13Z"/>
      <path class="cls-52" d="M106.89,117.25l16.77,10.2c1.19.73,1.98,1.97,2.14,3.35l.79,7.12c.22,2.03-.95,3.96-2.86,4.7l-6.68,2.58c-1.3.5-2.77.37-3.96-.35l-16.77-10.2c-2.53-1.54-5.74.61-5.22,3.52,1.24,6.97,5.46,13.48,12.13,17.54,12.06,7.33,26.07,2.98,33.12-8.62,7.05-11.6,4.48-26.05-7.58-33.38-6.67-4.06-14.39-4.81-21.15-2.71-2.83.88-3.25,4.72-.72,6.26Z"/>
      <path class="cls-33" d="M105.93,118.83l16.77,10.2c1.19.73,1.98,1.97,2.14,3.35l.79,7.12c.22,2.03-.95,3.96-2.86,4.7l-6.68,2.58c-1.3.5-2.77.37-3.96-.35l-16.77-10.2c-2.53-1.54-5.74.61-5.22,3.52,1.24,6.97,5.46,13.48,12.13,17.54,12.06,7.33,26.07,2.98,33.12-8.62,7.05-11.6,4.48-26.05-7.58-33.38-6.67-4.06-14.39-4.81-21.15-2.71-2.83.88-3.25,4.72-.72,6.26Z"/>
      <path class="cls-33" d="M221.24,189.42l2.89,1.76c4.96,3.02,7.33,8.17,5.3,11.51l-2.42,3.97c-2.03,3.34-7.7,3.61-12.66.59l-2.89-1.76c-.19-.12-.38-.24-.57-.36l-83.42-55.8,5.27-8.66,87.92,48.4c.2.11.39.22.58.34ZM218.57,193.31c-3.73-2.27-7.85-2.31-9.2-.09-1.35,2.22.58,5.86,4.32,8.13,3.73,2.27,7.85,2.31,9.2.09,1.35-2.22-.58-5.86-4.32-8.13Z"/>
    </g>
    <path class="cls-1" d="M202.97,175.42h-4.02s3.26,1.95,3.37,4.01c.11,2.05-1.29,6.31-1.95,7.47-.72,1.27,9.09-1.89,5.63-11.48h-3.03Z"/>
  </g>
</svg>